G75*
%MOIN*%
%OFA0B0*%
%FSLAX25Y25*%
%IPPOS*%
%LPD*%
%AMOC8*
5,1,8,0,0,1.08239X$1,22.5*
%
%ADD10R,0.03950X0.05524*%
%ADD11R,0.05524X0.08674*%
%ADD12OC8,0.08200*%
%ADD13R,0.05524X0.06312*%
%ADD14R,0.08700X0.05100*%
%ADD15R,0.02500X0.06400*%
%ADD16C,0.04800*%
%ADD17R,0.04762X0.04762*%
D10*
X0077457Y0066000D03*
X0084543Y0066000D03*
X0064543Y0071000D03*
X0057457Y0071000D03*
X0062457Y0086000D03*
X0069543Y0086000D03*
D11*
X0072299Y0051000D03*
X0059701Y0051000D03*
D12*
X0091000Y0051000D03*
X0101000Y0051000D03*
X0101000Y0041000D03*
X0091000Y0041000D03*
X0091000Y0031000D03*
X0101000Y0031000D03*
X0101000Y0021000D03*
X0091000Y0021000D03*
X0091000Y0011000D03*
X0101000Y0011000D03*
D13*
X0091906Y0076000D03*
X0080094Y0076000D03*
D14*
X0008300Y0011000D03*
X0008300Y0021000D03*
X0008300Y0031000D03*
X0008300Y0041000D03*
X0008300Y0051000D03*
X0008300Y0061000D03*
X0008300Y0071000D03*
X0008300Y0081000D03*
X0043700Y0081000D03*
X0043700Y0071000D03*
X0043700Y0061000D03*
X0043700Y0051000D03*
X0043700Y0041000D03*
X0043700Y0031000D03*
X0043700Y0021000D03*
X0043700Y0011000D03*
D15*
X0062161Y0012450D03*
X0064720Y0012450D03*
X0067280Y0012450D03*
X0069839Y0012450D03*
X0069839Y0029550D03*
X0067280Y0029550D03*
X0064720Y0029550D03*
X0062161Y0029550D03*
D16*
X0020000Y0051000D03*
X0098300Y0086400D03*
X0099550Y0082000D03*
X0103400Y0084800D03*
X0103050Y0077650D03*
D17*
X0073000Y0041350D03*
X0054100Y0025250D03*
X0064450Y0024650D03*
X0035250Y0025800D03*
M02*
