G75*
%MOIN*%
%OFA0B0*%
%FSLAX25Y25*%
%IPPOS*%
%LPD*%
%AMOC8*
5,1,8,0,0,1.08239X$1,22.5*
%
%ADD10C,0.00000*%
%ADD11R,0.03150X0.04724*%
%ADD12R,0.04724X0.07874*%
%ADD13OC8,0.07400*%
%ADD14R,0.04724X0.05512*%
%ADD15R,0.07900X0.04300*%
%ADD16R,0.01700X0.05600*%
%ADD17C,0.01000*%
%ADD18C,0.04000*%
%ADD19R,0.03962X0.03962*%
D10*
X0001000Y0001000D02*
X0001000Y0090961D01*
X0109701Y0090961D01*
X0109701Y0001000D01*
X0001000Y0001000D01*
D11*
X0077457Y0066000D03*
X0084543Y0066000D03*
X0064543Y0071000D03*
X0057457Y0071000D03*
X0062457Y0086000D03*
X0069543Y0086000D03*
D12*
X0072299Y0051000D03*
X0059701Y0051000D03*
D13*
X0091000Y0051000D03*
X0101000Y0051000D03*
X0101000Y0041000D03*
X0091000Y0041000D03*
X0091000Y0031000D03*
X0101000Y0031000D03*
X0101000Y0021000D03*
X0091000Y0021000D03*
X0091000Y0011000D03*
X0101000Y0011000D03*
D14*
X0091906Y0076000D03*
X0080094Y0076000D03*
D15*
X0043700Y0071000D03*
X0043700Y0061000D03*
X0043700Y0051000D03*
X0043700Y0041000D03*
X0043700Y0031000D03*
X0043700Y0021000D03*
X0043700Y0011000D03*
X0008300Y0011000D03*
X0008300Y0021000D03*
X0008300Y0031000D03*
X0008300Y0041000D03*
X0008300Y0051000D03*
X0008300Y0061000D03*
X0008300Y0071000D03*
X0008300Y0081000D03*
X0043700Y0081000D03*
D16*
X0062161Y0029550D03*
X0064720Y0029550D03*
X0067280Y0029550D03*
X0069839Y0029550D03*
X0069839Y0012450D03*
X0067280Y0012450D03*
X0064720Y0012450D03*
X0062161Y0012450D03*
D17*
X0062000Y0013000D01*
X0062000Y0016000D01*
X0078000Y0023000D01*
X0091000Y0031000D01*
X0096000Y0031000D02*
X0096000Y0026000D01*
X0091000Y0026000D01*
X0066000Y0016000D01*
X0064720Y0012450D01*
X0069839Y0012450D02*
X0070000Y0012000D01*
X0070000Y0009000D01*
X0069000Y0008000D01*
X0060000Y0008000D01*
X0059000Y0009000D01*
X0058800Y0022000D01*
X0059000Y0051000D01*
X0059701Y0051000D01*
X0070000Y0046000D02*
X0072299Y0051000D01*
X0073000Y0051000D01*
X0078000Y0066000D01*
X0077457Y0066000D01*
X0081000Y0069000D02*
X0080000Y0070000D01*
X0074000Y0070000D01*
X0065000Y0061000D01*
X0043700Y0061000D01*
X0043000Y0061000D01*
X0036000Y0054000D01*
X0036000Y0037000D01*
X0038000Y0035000D01*
X0039000Y0035000D01*
X0043000Y0031000D01*
X0043700Y0031000D01*
X0046000Y0037000D02*
X0050000Y0033000D01*
X0050000Y0029000D01*
X0044000Y0023000D01*
X0044000Y0021000D01*
X0043700Y0021000D01*
X0035250Y0025800D01*
X0039000Y0037000D02*
X0038000Y0038000D01*
X0038000Y0046000D01*
X0043000Y0051000D01*
X0043700Y0051000D01*
X0043700Y0041000D02*
X0045000Y0041000D01*
X0052000Y0034000D01*
X0052000Y0024850D01*
X0054100Y0025250D01*
X0052000Y0024850D02*
X0052000Y0021000D01*
X0044000Y0013000D01*
X0044000Y0011000D01*
X0043700Y0011000D01*
X0058800Y0022000D02*
X0071800Y0022000D01*
X0085000Y0038000D01*
X0085000Y0045000D01*
X0091000Y0051000D01*
X0085000Y0057000D01*
X0085000Y0066000D01*
X0084543Y0066000D01*
X0084000Y0066000D01*
X0084000Y0080000D01*
X0083000Y0081000D01*
X0068000Y0081000D01*
X0058000Y0071000D01*
X0057457Y0071000D01*
X0050000Y0070000D02*
X0050000Y0069000D01*
X0046000Y0065000D01*
X0039000Y0065000D01*
X0014000Y0040000D01*
X0014000Y0036000D01*
X0009000Y0031000D01*
X0008300Y0031000D01*
X0009000Y0031000D02*
X0014000Y0026000D01*
X0014000Y0018000D01*
X0009000Y0013000D01*
X0009000Y0011000D01*
X0008300Y0011000D01*
X0039000Y0037000D02*
X0046000Y0037000D01*
X0062000Y0033000D02*
X0062000Y0030000D01*
X0062161Y0029550D01*
X0064720Y0029550D02*
X0064450Y0024650D01*
X0067280Y0029550D02*
X0068000Y0033800D01*
X0073000Y0041350D01*
X0070000Y0046000D02*
X0062000Y0033000D01*
X0070000Y0030000D02*
X0069839Y0029550D01*
X0070000Y0030000D02*
X0082000Y0042000D01*
X0082000Y0062000D01*
X0081000Y0063000D01*
X0081000Y0069000D01*
X0080094Y0076000D02*
X0077000Y0076000D01*
X0072000Y0071000D01*
X0064543Y0071000D01*
X0062000Y0082000D02*
X0050000Y0070000D01*
X0062000Y0082000D02*
X0062000Y0086000D01*
X0062457Y0086000D01*
X0069543Y0086000D02*
X0081000Y0086000D01*
X0091000Y0076000D01*
X0091906Y0076000D01*
X0106000Y0061000D01*
X0106000Y0011000D01*
X0101000Y0011000D01*
X0096000Y0031000D02*
X0101000Y0041000D01*
X0020000Y0051000D02*
X0009000Y0051000D01*
X0008300Y0051000D01*
X0009000Y0051000D02*
X0009000Y0061000D01*
X0008300Y0061000D01*
X0009000Y0051000D02*
X0009000Y0041000D01*
X0008300Y0041000D01*
D18*
X0020000Y0051000D03*
X0098300Y0086400D03*
X0099550Y0082000D03*
X0103400Y0084800D03*
X0103050Y0077650D03*
D19*
X0073000Y0041350D03*
X0054100Y0025250D03*
X0064450Y0024650D03*
X0035250Y0025800D03*
M02*
