G75*
%MOIN*%
%OFA0B0*%
%FSLAX25Y25*%
%IPPOS*%
%LPD*%
%AMOC8*
5,1,8,0,0,1.08239X$1,22.5*
%
%ADD10R,0.03150X0.04724*%
%ADD11R,0.05000X0.02992*%
%ADD12R,0.12500X0.05000*%
%ADD13R,0.04724X0.05512*%
%ADD14R,0.04724X0.03150*%
%ADD15C,0.03937*%
%ADD16R,0.01700X0.05600*%
D10*
X0027657Y0042050D03*
X0034743Y0042050D03*
X0037043Y0058950D03*
X0029957Y0058950D03*
D11*
X0007763Y0010619D03*
X0007763Y0015619D03*
X0007763Y0020619D03*
X0007763Y0025619D03*
X0007763Y0030619D03*
X0007763Y0035619D03*
X0037763Y0035619D03*
X0037763Y0030619D03*
X0037763Y0025619D03*
X0037763Y0020619D03*
X0037763Y0015619D03*
X0037763Y0010619D03*
D12*
X0051300Y0019450D03*
X0051300Y0029450D03*
X0051300Y0039450D03*
X0051300Y0049450D03*
X0051300Y0059450D03*
X0072800Y0059450D03*
X0072800Y0049450D03*
X0072800Y0039450D03*
X0072800Y0029450D03*
X0072800Y0019450D03*
D13*
X0067806Y0010450D03*
X0055994Y0010450D03*
D14*
X0046400Y0012393D03*
X0046400Y0005307D03*
X0007000Y0043507D03*
X0007000Y0050593D03*
D15*
X0007000Y0059050D03*
X0077000Y0009050D03*
D16*
X0021839Y0042500D03*
X0019280Y0042500D03*
X0016720Y0042500D03*
X0014161Y0042500D03*
X0014161Y0059600D03*
X0016720Y0059600D03*
X0019280Y0059600D03*
X0021839Y0059600D03*
M02*
