G75*
%MOIN*%
%OFA0B0*%
%FSLAX25Y25*%
%IPPOS*%
%LPD*%
%AMOC8*
5,1,8,0,0,1.08239X$1,22.5*
%
%ADD10C,0.00200*%
%ADD11C,0.00500*%
%ADD12C,0.00600*%
%ADD13C,0.00800*%
D10*
X0003100Y0003150D02*
X0003100Y0004952D01*
X0004001Y0004952D01*
X0004301Y0004651D01*
X0004301Y0004051D01*
X0004001Y0003751D01*
X0003100Y0003751D01*
X0003701Y0003751D02*
X0004301Y0003150D01*
X0005542Y0003150D02*
X0005542Y0004051D01*
X0006143Y0004651D01*
X0006143Y0004952D01*
X0006783Y0004351D02*
X0007384Y0004952D01*
X0007984Y0004351D01*
X0007984Y0003150D01*
X0008625Y0003150D02*
X0008625Y0004952D01*
X0009826Y0003150D01*
X0009826Y0004952D01*
X0012308Y0004651D02*
X0012308Y0003450D01*
X0012608Y0003150D01*
X0013209Y0003150D01*
X0013509Y0003450D01*
X0013509Y0004651D01*
X0013209Y0004952D01*
X0012608Y0004952D01*
X0012308Y0004651D01*
X0014149Y0004351D02*
X0014450Y0004651D01*
X0014450Y0005252D01*
X0015070Y0004651D02*
X0015070Y0004351D01*
X0015370Y0004051D01*
X0015971Y0004051D01*
X0016271Y0003751D01*
X0016271Y0003450D01*
X0015971Y0003150D01*
X0015370Y0003150D01*
X0015070Y0003450D01*
X0015070Y0004651D02*
X0015370Y0004952D01*
X0015971Y0004952D01*
X0016271Y0004651D01*
X0016912Y0004952D02*
X0016912Y0003150D01*
X0018113Y0003150D02*
X0018113Y0004952D01*
X0018753Y0004952D02*
X0018753Y0003150D01*
X0019954Y0003150D01*
X0020595Y0003150D02*
X0020595Y0004351D01*
X0021195Y0004952D01*
X0021796Y0004351D01*
X0021796Y0003150D01*
X0021796Y0004051D02*
X0020595Y0004051D01*
X0019954Y0004952D02*
X0018753Y0004952D01*
X0018753Y0004051D02*
X0019354Y0004051D01*
X0018113Y0004051D02*
X0016912Y0004051D01*
X0021600Y0006450D02*
X0021900Y0006150D01*
X0022501Y0006150D01*
X0022801Y0006450D01*
X0022801Y0006751D01*
X0022501Y0007051D01*
X0021900Y0007051D01*
X0021600Y0007351D01*
X0021600Y0007651D01*
X0021900Y0007952D01*
X0022501Y0007952D01*
X0022801Y0007651D01*
X0023442Y0007351D02*
X0024042Y0007952D01*
X0024042Y0006150D01*
X0023442Y0006150D02*
X0024643Y0006150D01*
X0024578Y0005252D02*
X0024578Y0004651D01*
X0024278Y0004351D01*
X0025199Y0004351D02*
X0025799Y0004952D01*
X0025799Y0003150D01*
X0025199Y0003150D02*
X0026400Y0003150D01*
X0027040Y0003450D02*
X0027341Y0003150D01*
X0027941Y0003150D01*
X0028241Y0003450D01*
X0028241Y0003751D01*
X0027941Y0004051D01*
X0027040Y0004051D01*
X0027040Y0003450D01*
X0027040Y0004051D02*
X0027641Y0004651D01*
X0028241Y0004952D01*
X0030132Y0009750D02*
X0029398Y0010484D01*
X0031600Y0010484D01*
X0031600Y0009750D02*
X0031600Y0011218D01*
X0031600Y0014750D02*
X0030132Y0016218D01*
X0029765Y0016218D01*
X0029398Y0015851D01*
X0029398Y0015117D01*
X0029765Y0014750D01*
X0031600Y0014750D02*
X0031600Y0016218D01*
X0031233Y0019750D02*
X0031600Y0020117D01*
X0031600Y0020851D01*
X0031233Y0021218D01*
X0030866Y0021218D01*
X0030499Y0020851D01*
X0030499Y0020484D01*
X0030499Y0020851D02*
X0030132Y0021218D01*
X0029765Y0021218D01*
X0029398Y0020851D01*
X0029398Y0020117D01*
X0029765Y0019750D01*
X0030499Y0024750D02*
X0030499Y0026218D01*
X0029398Y0025851D02*
X0030499Y0024750D01*
X0031600Y0025851D02*
X0029398Y0025851D01*
X0029398Y0029750D02*
X0030499Y0029750D01*
X0030132Y0030484D01*
X0030132Y0030851D01*
X0030499Y0031218D01*
X0031233Y0031218D01*
X0031600Y0030851D01*
X0031600Y0030117D01*
X0031233Y0029750D01*
X0029398Y0029750D02*
X0029398Y0031218D01*
X0030499Y0034750D02*
X0030499Y0035851D01*
X0030866Y0036218D01*
X0031233Y0036218D01*
X0031600Y0035851D01*
X0031600Y0035117D01*
X0031233Y0034750D01*
X0030499Y0034750D01*
X0029765Y0035484D01*
X0029398Y0036218D01*
X0041598Y0030892D02*
X0041598Y0030292D01*
X0041899Y0029992D01*
X0043100Y0029992D01*
X0043400Y0030292D01*
X0043400Y0030892D01*
X0043100Y0031193D01*
X0041899Y0031193D01*
X0041598Y0030892D01*
X0043400Y0029351D02*
X0043400Y0028150D01*
X0041598Y0028150D01*
X0041598Y0017092D02*
X0041598Y0016492D01*
X0041598Y0016792D02*
X0043400Y0016792D01*
X0043400Y0016492D02*
X0043400Y0017092D01*
X0043400Y0015851D02*
X0041598Y0015851D01*
X0042499Y0015851D02*
X0042499Y0014650D01*
X0043400Y0014650D02*
X0041598Y0014650D01*
X0041749Y0006709D02*
X0041448Y0006409D01*
X0041448Y0005809D01*
X0041749Y0005508D01*
X0041749Y0004868D02*
X0042349Y0004868D01*
X0042649Y0004568D01*
X0042649Y0003667D01*
X0042649Y0004267D02*
X0043250Y0004868D01*
X0043250Y0005508D02*
X0042049Y0006709D01*
X0041749Y0006709D01*
X0043250Y0006709D02*
X0043250Y0005508D01*
X0041749Y0004868D02*
X0041448Y0004568D01*
X0041448Y0003667D01*
X0043250Y0003667D01*
X0060700Y0004250D02*
X0061601Y0004250D01*
X0061901Y0004550D01*
X0061901Y0005751D01*
X0061601Y0006052D01*
X0060700Y0006052D01*
X0060700Y0004250D01*
X0062542Y0004250D02*
X0063743Y0004250D01*
X0063142Y0004250D02*
X0063142Y0006052D01*
X0062542Y0005451D01*
X0074600Y0014450D02*
X0074900Y0014150D01*
X0075501Y0014150D01*
X0075801Y0014450D01*
X0075801Y0015051D01*
X0075201Y0015051D01*
X0075801Y0015651D02*
X0075501Y0015952D01*
X0074900Y0015952D01*
X0074600Y0015651D01*
X0074600Y0014450D01*
X0076442Y0014150D02*
X0076442Y0015952D01*
X0077643Y0014150D01*
X0077643Y0015952D01*
X0078283Y0015952D02*
X0079184Y0015952D01*
X0079484Y0015651D01*
X0079484Y0014450D01*
X0079184Y0014150D01*
X0078283Y0014150D01*
X0078283Y0015952D01*
X0043900Y0039450D02*
X0043900Y0039751D01*
X0043600Y0040051D01*
X0042098Y0040051D01*
X0042098Y0039751D02*
X0042098Y0040351D01*
X0042699Y0040992D02*
X0042098Y0041592D01*
X0043900Y0041592D01*
X0043900Y0040992D02*
X0043900Y0042193D01*
X0043900Y0039450D02*
X0043600Y0039150D01*
X0040588Y0047150D02*
X0039387Y0047150D01*
X0039988Y0047150D02*
X0039988Y0048952D01*
X0039387Y0048351D01*
X0038767Y0047450D02*
X0038767Y0047150D01*
X0038466Y0047150D01*
X0038466Y0047450D01*
X0038767Y0047450D01*
X0037826Y0047450D02*
X0037826Y0047751D01*
X0037525Y0048051D01*
X0037225Y0048051D01*
X0037525Y0048051D02*
X0037826Y0048351D01*
X0037826Y0048651D01*
X0037525Y0048952D01*
X0036925Y0048952D01*
X0036625Y0048651D01*
X0035984Y0048351D02*
X0035384Y0047150D01*
X0034783Y0048351D01*
X0034783Y0050150D02*
X0035684Y0050150D01*
X0035984Y0050450D01*
X0035684Y0050751D01*
X0035083Y0050751D01*
X0034783Y0051051D01*
X0035083Y0051351D01*
X0035984Y0051351D01*
X0036625Y0051051D02*
X0036625Y0050450D01*
X0036925Y0050150D01*
X0037525Y0050150D01*
X0037826Y0050751D02*
X0036625Y0050751D01*
X0036625Y0051051D02*
X0036925Y0051351D01*
X0037525Y0051351D01*
X0037826Y0051051D01*
X0037826Y0050751D01*
X0038466Y0050150D02*
X0038466Y0051351D01*
X0039367Y0051351D01*
X0039667Y0051051D01*
X0039667Y0050150D01*
X0040308Y0050150D02*
X0041209Y0050150D01*
X0041509Y0050450D01*
X0041209Y0050751D01*
X0040608Y0050751D01*
X0040308Y0051051D01*
X0040608Y0051351D01*
X0041509Y0051351D01*
X0042149Y0051051D02*
X0042149Y0050450D01*
X0042450Y0050150D01*
X0043050Y0050150D01*
X0043350Y0050751D02*
X0042149Y0050751D01*
X0042149Y0051051D02*
X0042450Y0051351D01*
X0043050Y0051351D01*
X0043350Y0051051D01*
X0043350Y0050751D01*
X0037826Y0047450D02*
X0037525Y0047150D01*
X0036925Y0047150D01*
X0036625Y0047450D01*
X0033842Y0050150D02*
X0033242Y0050150D01*
X0032942Y0050450D01*
X0032942Y0051651D01*
X0033242Y0051952D01*
X0033842Y0051952D01*
X0034143Y0051651D01*
X0034143Y0050450D02*
X0033842Y0050150D01*
X0032301Y0050450D02*
X0032001Y0050150D01*
X0031100Y0050150D01*
X0031100Y0051952D01*
X0032001Y0051952D01*
X0032301Y0051651D01*
X0032301Y0050450D01*
X0032217Y0054000D02*
X0032818Y0054000D01*
X0033118Y0054300D01*
X0033758Y0054000D02*
X0034959Y0055201D01*
X0034959Y0055501D01*
X0034659Y0055802D01*
X0034059Y0055802D01*
X0033758Y0055501D01*
X0033118Y0055501D02*
X0032818Y0055802D01*
X0032217Y0055802D01*
X0031917Y0055501D01*
X0031917Y0054300D01*
X0032217Y0054000D01*
X0033758Y0054000D02*
X0034959Y0054000D01*
X0042098Y0057150D02*
X0043299Y0057150D01*
X0043900Y0057751D01*
X0043299Y0058351D01*
X0042098Y0058351D01*
X0042098Y0058992D02*
X0042098Y0059892D01*
X0042399Y0060193D01*
X0043600Y0060193D01*
X0043900Y0059892D01*
X0043900Y0058992D01*
X0042098Y0058992D01*
X0042098Y0060833D02*
X0042098Y0061734D01*
X0042399Y0062034D01*
X0043600Y0062034D01*
X0043900Y0061734D01*
X0043900Y0060833D01*
X0042098Y0060833D01*
X0025400Y0052509D02*
X0025400Y0051308D01*
X0025400Y0051909D02*
X0023598Y0051909D01*
X0024199Y0051308D01*
X0023598Y0050668D02*
X0025100Y0050668D01*
X0025400Y0050368D01*
X0025400Y0049767D01*
X0025100Y0049467D01*
X0023598Y0049467D01*
X0029717Y0046601D02*
X0029717Y0045400D01*
X0030017Y0045100D01*
X0030618Y0045100D01*
X0030918Y0045400D01*
X0031558Y0045100D02*
X0032759Y0045100D01*
X0032159Y0045100D02*
X0032159Y0046902D01*
X0031558Y0046301D01*
X0030918Y0046601D02*
X0030618Y0046902D01*
X0030017Y0046902D01*
X0029717Y0046601D01*
X0008959Y0039400D02*
X0007758Y0039400D01*
X0008359Y0039400D02*
X0008359Y0041202D01*
X0007758Y0040601D01*
X0007118Y0040901D02*
X0007118Y0040301D01*
X0006818Y0040001D01*
X0005917Y0040001D01*
X0006517Y0040001D02*
X0007118Y0039400D01*
X0005917Y0039400D02*
X0005917Y0041202D01*
X0006818Y0041202D01*
X0007118Y0040901D01*
X0004400Y0037193D02*
X0004400Y0035992D01*
X0003199Y0037193D01*
X0002899Y0037193D01*
X0002598Y0036892D01*
X0002598Y0036292D01*
X0002899Y0035992D01*
X0003199Y0035351D02*
X0004400Y0035351D01*
X0003499Y0035351D02*
X0003499Y0034150D01*
X0003199Y0034150D02*
X0002598Y0034751D01*
X0003199Y0035351D01*
X0003199Y0034150D02*
X0004400Y0034150D01*
X0004400Y0032193D02*
X0004400Y0030992D01*
X0004400Y0031592D02*
X0002598Y0031592D01*
X0003199Y0030992D01*
X0003199Y0030351D02*
X0002598Y0029751D01*
X0003199Y0029150D01*
X0004400Y0029150D01*
X0003499Y0029150D02*
X0003499Y0030351D01*
X0003199Y0030351D02*
X0004400Y0030351D01*
X0004100Y0027193D02*
X0002899Y0027193D01*
X0004100Y0025992D01*
X0004400Y0026292D01*
X0004400Y0026892D01*
X0004100Y0027193D01*
X0002899Y0027193D02*
X0002598Y0026892D01*
X0002598Y0026292D01*
X0002899Y0025992D01*
X0004100Y0025992D01*
X0004400Y0025351D02*
X0003199Y0025351D01*
X0002598Y0024751D01*
X0003199Y0024150D01*
X0004400Y0024150D01*
X0003499Y0024150D02*
X0003499Y0025351D01*
X0003199Y0022193D02*
X0002899Y0022193D01*
X0002598Y0021892D01*
X0002598Y0021292D01*
X0002899Y0020992D01*
X0003199Y0020351D02*
X0004400Y0020351D01*
X0004400Y0020992D02*
X0003199Y0022193D01*
X0004400Y0022193D02*
X0004400Y0020992D01*
X0003499Y0020351D02*
X0003499Y0019150D01*
X0003199Y0019150D02*
X0002598Y0019751D01*
X0003199Y0020351D01*
X0003199Y0019150D02*
X0004400Y0019150D01*
X0004400Y0017193D02*
X0004400Y0015992D01*
X0004400Y0016592D02*
X0002598Y0016592D01*
X0003199Y0015992D01*
X0003199Y0015351D02*
X0004400Y0015351D01*
X0003499Y0015351D02*
X0003499Y0014150D01*
X0003199Y0014150D02*
X0002598Y0014751D01*
X0003199Y0015351D01*
X0003199Y0014150D02*
X0004400Y0014150D01*
X0004100Y0012193D02*
X0002899Y0012193D01*
X0004100Y0010992D01*
X0004400Y0011292D01*
X0004400Y0011892D01*
X0004100Y0012193D01*
X0002899Y0012193D02*
X0002598Y0011892D01*
X0002598Y0011292D01*
X0002899Y0010992D01*
X0004100Y0010992D01*
X0004400Y0010351D02*
X0003199Y0010351D01*
X0002598Y0009751D01*
X0003199Y0009150D01*
X0004400Y0009150D01*
X0003499Y0009150D02*
X0003499Y0010351D01*
X0004942Y0004952D02*
X0004942Y0004651D01*
X0005542Y0004051D01*
X0006783Y0004051D02*
X0007984Y0004051D01*
X0006783Y0004351D02*
X0006783Y0003150D01*
X0014398Y0011117D02*
X0014765Y0010750D01*
X0016233Y0010750D01*
X0016600Y0011117D01*
X0016600Y0011851D01*
X0016233Y0012218D01*
X0014765Y0012218D01*
X0014398Y0011851D01*
X0014398Y0011117D01*
X0014398Y0012960D02*
X0016600Y0014428D01*
X0014398Y0014428D01*
X0014398Y0012960D02*
X0016600Y0012960D01*
D11*
X0011700Y0008650D02*
X0033700Y0008650D01*
X0033700Y0037650D01*
X0011700Y0037650D01*
X0011700Y0008650D01*
X0040000Y0008050D02*
X0041000Y0008050D01*
X0041000Y0023050D01*
X0041000Y0038050D01*
X0040000Y0038050D01*
X0023000Y0047050D02*
X0013000Y0047050D01*
X0013000Y0055050D01*
X0023000Y0055050D01*
X0023000Y0047050D01*
X0023572Y0058050D02*
X0023574Y0058104D01*
X0023580Y0058157D01*
X0023590Y0058210D01*
X0023604Y0058262D01*
X0023621Y0058313D01*
X0023642Y0058362D01*
X0023667Y0058410D01*
X0023696Y0058456D01*
X0023727Y0058499D01*
X0023762Y0058540D01*
X0023800Y0058579D01*
X0023840Y0058614D01*
X0023883Y0058647D01*
X0023928Y0058676D01*
X0023976Y0058702D01*
X0024025Y0058724D01*
X0024075Y0058742D01*
X0024127Y0058757D01*
X0024179Y0058768D01*
X0024233Y0058775D01*
X0024287Y0058778D01*
X0024340Y0058777D01*
X0024394Y0058772D01*
X0024447Y0058763D01*
X0024499Y0058750D01*
X0024550Y0058734D01*
X0024600Y0058713D01*
X0024648Y0058689D01*
X0024695Y0058662D01*
X0024739Y0058631D01*
X0024780Y0058597D01*
X0024820Y0058560D01*
X0024856Y0058520D01*
X0024889Y0058478D01*
X0024919Y0058433D01*
X0024946Y0058386D01*
X0024969Y0058338D01*
X0024988Y0058288D01*
X0025004Y0058236D01*
X0025016Y0058184D01*
X0025024Y0058131D01*
X0025028Y0058077D01*
X0025028Y0058023D01*
X0025024Y0057969D01*
X0025016Y0057916D01*
X0025004Y0057864D01*
X0024988Y0057812D01*
X0024969Y0057762D01*
X0024946Y0057714D01*
X0024919Y0057667D01*
X0024889Y0057622D01*
X0024856Y0057580D01*
X0024820Y0057540D01*
X0024780Y0057503D01*
X0024739Y0057469D01*
X0024695Y0057438D01*
X0024648Y0057411D01*
X0024600Y0057387D01*
X0024550Y0057366D01*
X0024499Y0057350D01*
X0024447Y0057337D01*
X0024394Y0057328D01*
X0024340Y0057323D01*
X0024287Y0057322D01*
X0024233Y0057325D01*
X0024179Y0057332D01*
X0024127Y0057343D01*
X0024075Y0057358D01*
X0024025Y0057376D01*
X0023976Y0057398D01*
X0023928Y0057424D01*
X0023883Y0057453D01*
X0023840Y0057486D01*
X0023800Y0057521D01*
X0023762Y0057560D01*
X0023727Y0057601D01*
X0023696Y0057644D01*
X0023667Y0057690D01*
X0023642Y0057738D01*
X0023621Y0057787D01*
X0023604Y0057838D01*
X0023590Y0057890D01*
X0023580Y0057943D01*
X0023574Y0057996D01*
X0023572Y0058050D01*
X0040000Y0023050D02*
X0041000Y0023050D01*
D12*
X0044038Y0010031D02*
X0044038Y0007669D01*
X0048762Y0007669D02*
X0048762Y0010031D01*
X0032381Y0039688D02*
X0030019Y0039688D01*
X0030019Y0044412D02*
X0032381Y0044412D01*
X0032319Y0056588D02*
X0034681Y0056588D01*
X0034681Y0061312D02*
X0032319Y0061312D01*
X0009362Y0048231D02*
X0009362Y0045869D01*
X0004638Y0045869D02*
X0004638Y0048231D01*
D13*
X0052451Y0014387D02*
X0057963Y0014387D01*
X0060719Y0013206D02*
X0060719Y0010450D01*
X0063081Y0012812D01*
X0063081Y0008088D01*
X0060719Y0010450D01*
X0060719Y0007694D01*
X0057963Y0006513D02*
X0052451Y0006513D01*
X0052451Y0014387D01*
X0065837Y0014387D02*
X0071349Y0014387D01*
X0071349Y0006513D01*
X0065837Y0006513D01*
M02*
