<?xml version="1.0" encoding="utf-8"?>
<!-- Generator: Adobe Illustrator 16.0.0, SVG Export Plug-In . SVG Version: 6.00 Build 0)  -->
<!DOCTYPE svg PUBLIC "-//W3C//DTD SVG 1.1//EN" "http://www.w3.org/Graphics/SVG/1.1/DTD/svg11.dtd">
<svg version="1.1"
	 id="svg2" xmlns:dc="http://purl.org/dc/elements/1.1/" xmlns:cc="http://creativecommons.org/ns#" xmlns:rdf="http://www.w3.org/1999/02/22-rdf-syntax-ns#" xmlns:svg="http://www.w3.org/2000/svg" xmlns:sodipodi="http://sodipodi.sourceforge.net/DTD/sodipodi-0.dtd" xmlns:inkscape="http://www.inkscape.org/namespaces/inkscape" sodipodi:docname="server3d.svg" inkscape:version="0.46" sodipodi:version="0.32" inkscape:output_extension="org.inkscape.output.svg.inkscape"
	 xmlns="http://www.w3.org/2000/svg" xmlns:xlink="http://www.w3.org/1999/xlink" x="0px" y="0px" width="452.957px"
	 height="1057.834px" viewBox="0 0 452.957 1057.834" enable-background="new 0 0 452.957 1057.834" xml:space="preserve">
<filter  id="filter3266" inkscape:collect="always">
	<feGaussianBlur  stdDeviation="0.70535019" id="feGaussianBlur3268" inkscape:collect="always"></feGaussianBlur>
</filter>
<defs>
	
	
		<inkscape:perspective  sodipodi:type="inkscape:persp3d" inkscape:vp_y="0 : 1000 : 0" inkscape:vp_x="0 : 526.18109 : 1" inkscape:vp_z="744.09448 : 526.18109 : 1" id="perspective10" inkscape:persp3d-origin="372.04724 : 350.78739 : 1">
		</inkscape:perspective>
	
		<inkscape:perspective  sodipodi:type="inkscape:persp3d" inkscape:vp_y="0 : 1000 : 0" inkscape:vp_x="0 : 526.18109 : 1" inkscape:vp_z="744.09448 : 526.18109 : 1" id="perspective2390" inkscape:persp3d-origin="372.04724 : 350.78739 : 1">
		</inkscape:perspective>
</defs>
<sodipodi:namedview  showgrid="false" inkscape:cy="512.43525" inkscape:cx="483.58959" inkscape:zoom="0.175" borderopacity="1.0" bordercolor="#666666" pagecolor="#ffffff" id="base" inkscape:document-units="px" inkscape:current-layer="layer1" inkscape:window-y="0" inkscape:window-x="0" inkscape:pageopacity="0.0" inkscape:window-height="692" inkscape:window-width="1016" inkscape:pageshadow="2">
	<inkscape:grid  type="xygrid" visible="true" enabled="true" id="grid5223"></inkscape:grid>
</sodipodi:namedview>
<g id="layer1" transform="translate(-19.470865,9.0429796)" inkscape:label="Ebene 1" inkscape:groupmode="layer">
	
		<linearGradient id="path5221_1_" gradientUnits="userSpaceOnUse" x1="327.3434" y1="561.7959" x2="395.8458" y2="1078.9937" gradientTransform="matrix(1 0 0 -1 106.5293 1085.791)">
		<stop  offset="0" style="stop-color:#111111"/>
		<stop  offset="1" style="stop-color:#555555"/>
	</linearGradient>
	<path id="path5221" sodipodi:nodetypes="ccccc" fill="url(#path5221_1_)" d="M397.863,34.311l73.916-43.354l0.648,1003.524
		l-64.57,51.048L397.863,34.311z"/>
	
		<linearGradient id="path2963_1_" gradientUnits="userSpaceOnUse" x1="57.2243" y1="1073.4717" x2="365.3024" y2="1073.4717" gradientTransform="matrix(1 0 0 -1 106.5293 1085.791)">
		<stop  offset="0" style="stop-color:#353535"/>
		<stop  offset="1" style="stop-color:#737373"/>
	</linearGradient>
	<path id="path2963" sodipodi:nodetypes="ccccc" fill="url(#path2963_1_)" d="M26.264,30.088L85.635-8.89l386.197-0.076
		l-61.457,42.57L26.264,30.088z"/>
	<g id="g5491">
		
			<path id="path5779" sodipodi:nodetypes="ccccccccc" fill="#707070" stroke="#353535" stroke-width="10" stroke-linecap="round" stroke-linejoin="round" d="
			M37.313,28.495l365.571,1.01c11.592,0,15.873-0.582,15.873,16.263l1.01,967.618c0,16.845-9.332,30.405-20.924,30.405H46.404
			c-11.591,0-20.923-13.561-20.923-30.405l-1.01-963.578C24.471,32.964,25.721,28.495,37.313,28.495z"/>
		<g id="g5245">
			<path id="rect2420" opacity="0.6997" fill="#CCCCCC" stroke="#010101" enable-background="new    " d="M56.42,47.219h326.928
				c5.996,0,10.822,4.283,10.822,9.602V94.76c0,5.32-4.826,9.603-10.822,9.603H56.42c-5.995,0-10.822-4.283-10.822-9.603V56.821
				C45.598,51.502,50.424,47.219,56.42,47.219z"/>
			<path id="rect2422" opacity="0.6997" fill="#CCCCCC" stroke="#010101" enable-background="new    " d="M56.42,121.188h326.928
				c5.996,0,10.822,4.283,10.822,9.603v37.938c0,5.32-4.826,9.603-10.822,9.603H56.42c-5.995,0-10.822-4.283-10.822-9.603V130.79
				C45.598,125.47,50.424,121.188,56.42,121.188z"/>
			<path id="rect2424" opacity="0.6997" fill="#2F2F2F" stroke="#010101" enable-background="new    " d="M56.42,195.156h326.928
				c5.996,0,10.822,4.283,10.822,9.602v37.938c0,5.32-4.826,9.603-10.822,9.603H56.42c-5.995,0-10.822-4.283-10.822-9.603v-37.938
				C45.598,199.438,50.424,195.156,56.42,195.156z"/>
			<path id="rect2426" opacity="0.6997" fill="#CCCCCC" stroke="#010101" enable-background="new    " d="M56.42,269.124h326.928
				c5.996,0,10.822,4.283,10.822,9.603v37.938c0,5.32-4.826,9.603-10.822,9.603H56.42c-5.995,0-10.822-4.283-10.822-9.603v-37.938
				C45.598,273.407,50.424,269.124,56.42,269.124z"/>
			<path id="rect2428" opacity="0.6997" fill="#CCCCCC" stroke="#010101" enable-background="new    " d="M56.42,343.092h326.928
				c5.996,0,10.822,4.283,10.822,9.603v37.938c0,5.32-4.826,9.603-10.822,9.603H56.42c-5.995,0-10.822-4.282-10.822-9.603v-37.938
				C45.598,347.375,50.424,343.092,56.42,343.092z"/>
			<path id="rect2430" opacity="0.6997" fill="#CCCCCC" stroke="#010101" enable-background="new    " d="M56.42,417.061h326.928
				c5.996,0,10.822,4.282,10.822,9.603v37.938c0,5.319-4.826,9.602-10.822,9.602H56.42c-5.995,0-10.822-4.282-10.822-9.602v-37.938
				C45.598,421.343,50.424,417.061,56.42,417.061z"/>
			<path id="rect2432" opacity="0.6997" fill="#CCCCCC" stroke="#010101" enable-background="new    " d="M56.42,491.029h326.928
				c5.996,0,10.822,4.282,10.822,9.602v37.938c0,5.319-4.826,9.603-10.822,9.603H56.42c-5.995,0-10.822-4.283-10.822-9.603v-37.938
				C45.598,495.312,50.424,491.029,56.42,491.029z"/>
			<path id="rect2434" opacity="0.6997" fill="#2F2F2F" stroke="#010101" enable-background="new    " d="M56.42,564.997h326.928
				c5.996,0,10.822,10.706,10.822,24.006v94.846c0,13.299-4.826,24.006-10.822,24.006H56.42c-5.995,0-10.822-10.707-10.822-24.006
				v-94.846C45.598,575.703,50.424,564.997,56.42,564.997z"/>
			<path id="rect2436" opacity="0.6997" fill="#CCCCCC" stroke="#010101" enable-background="new    " d="M56.42,724.68h326.928
				c5.996,0,10.822,10.706,10.822,24.006v94.846c0,13.299-4.826,24.006-10.822,24.006H56.42c-5.995,0-10.822-10.707-10.822-24.006
				v-94.846C45.598,735.386,50.424,724.68,56.42,724.68z"/>
			<path id="rect2438" opacity="0.6997" fill="#CCCCCC" stroke="#010101" enable-background="new    " d="M56.42,884.362h326.928
				c5.996,0,10.822,10.706,10.822,24.006v94.846c0,13.299-4.826,24.006-10.822,24.006H56.42c-5.995,0-10.822-10.707-10.822-24.006
				v-94.846C45.598,895.068,50.424,884.362,56.42,884.362z"/>
			<g id="path2442" opacity="0.6997" filter="url(#filter3266)" enable-background="new    ">
				
					<linearGradient id="SVGID_1_" gradientUnits="userSpaceOnUse" x1="60.0251" y1="901.8994" x2="60.7441" y2="885.5491" gradientTransform="matrix(-0.1267 1.3038 2.0874 0.0573 -1483.2986 -55.8365)">
					<stop  offset="0" style="stop-color:#424242"/>
					<stop  offset="1" style="stop-color:#B4B4B4"/>
				</linearGradient>
				<path fill="url(#SVGID_1_)" d="M388.924,95.525c-18.105-0.497-31.867-10.497-30.719-22.32
					c1.051-10.814,13.926-19.452,30.479-20.446l2.322,21.347L388.924,95.525z"/>
			</g>
			<g id="path3270" opacity="0.6997" filter="url(#filter3266)" enable-background="new    ">
				
					<linearGradient id="SVGID_2_" gradientUnits="userSpaceOnUse" x1="60.0241" y1="901.8994" x2="60.7432" y2="885.5491" gradientTransform="matrix(-0.1267 1.3038 2.0874 0.0573 -1483.2986 18.0981)">
					<stop  offset="0" style="stop-color:#424242"/>
					<stop  offset="1" style="stop-color:#B4B4B4"/>
				</linearGradient>
				<path fill="url(#SVGID_2_)" d="M388.924,169.46c-18.105-0.498-31.867-10.497-30.719-22.32
					c1.051-10.814,13.926-19.452,30.479-20.447l2.322,21.348L388.924,169.46z"/>
			</g>
			<g id="path3278" opacity="0.6997" filter="url(#filter3266)" enable-background="new    ">
				
					<linearGradient id="SVGID_3_" gradientUnits="userSpaceOnUse" x1="60.0251" y1="901.8984" x2="60.7441" y2="885.5491" gradientTransform="matrix(-0.1267 1.3038 2.0874 0.0573 -1483.2986 166.9555)">
					<stop  offset="0" style="stop-color:#424242"/>
					<stop  offset="1" style="stop-color:#B4B4B4"/>
				</linearGradient>
				<path fill="url(#SVGID_3_)" d="M388.924,318.317c-18.105-0.497-31.867-10.497-30.719-22.32
					c1.051-10.814,13.926-19.452,30.479-20.446l2.322,21.347L388.924,318.317z"/>
			</g>
			<g id="path3282" opacity="0.6997" filter="url(#filter3266)" enable-background="new    ">
				
					<linearGradient id="SVGID_4_" gradientUnits="userSpaceOnUse" x1="60.0251" y1="901.8994" x2="60.7441" y2="885.5491" gradientTransform="matrix(-0.1267 1.3038 2.0874 0.0573 -1483.2986 240.3832)">
					<stop  offset="0" style="stop-color:#424242"/>
					<stop  offset="1" style="stop-color:#B4B4B4"/>
				</linearGradient>
				<path fill="url(#SVGID_4_)" d="M388.924,391.746c-18.105-0.498-31.867-10.498-30.719-22.321
					c1.051-10.814,13.926-19.452,30.479-20.446l2.322,21.347L388.924,391.746z"/>
			</g>
			<g id="path3286" opacity="0.6997" filter="url(#filter3266)" enable-background="new    ">
				
					<linearGradient id="SVGID_5_" gradientUnits="userSpaceOnUse" x1="60.0251" y1="901.8994" x2="60.7441" y2="885.5491" gradientTransform="matrix(-0.1267 1.3038 2.0874 0.0573 -1483.2986 314.3832)">
					<stop  offset="0" style="stop-color:#424242"/>
					<stop  offset="1" style="stop-color:#B4B4B4"/>
				</linearGradient>
				<path fill="url(#SVGID_5_)" d="M388.924,465.746c-18.105-0.498-31.867-10.497-30.719-22.321
					c1.051-10.813,13.926-19.451,30.479-20.446l2.322,21.348L388.924,465.746z"/>
			</g>
			<g id="path3290" opacity="0.6997" filter="url(#filter3266)" enable-background="new    ">
				
					<linearGradient id="SVGID_6_" gradientUnits="userSpaceOnUse" x1="60.0251" y1="901.8984" x2="60.7441" y2="885.5491" gradientTransform="matrix(-0.1267 1.3038 2.0874 0.0573 -1483.2986 388.9555)">
					<stop  offset="0" style="stop-color:#424242"/>
					<stop  offset="1" style="stop-color:#B4B4B4"/>
				</linearGradient>
				<path fill="url(#SVGID_6_)" d="M388.924,540.317c-18.105-0.498-31.867-10.497-30.719-22.32
					c1.051-10.814,13.926-19.452,30.479-20.447l2.322,21.348L388.924,540.317z"/>
			</g>
			<g id="path3298" opacity="0.6997" filter="url(#filter3266)" enable-background="new    ">
				
					<linearGradient id="SVGID_7_" gradientUnits="userSpaceOnUse" x1="60.0241" y1="901.8994" x2="60.7432" y2="885.5491" gradientTransform="matrix(-0.1267 1.3038 2.0874 0.0573 -1483.2986 663.8129)">
					<stop  offset="0" style="stop-color:#424242"/>
					<stop  offset="1" style="stop-color:#B4B4B4"/>
				</linearGradient>
				<path fill="url(#SVGID_7_)" d="M388.924,815.174c-18.105-0.497-31.867-10.496-30.719-22.32
					c1.051-10.813,13.926-19.451,30.479-20.446l2.322,21.348L388.924,815.174z"/>
			</g>
			<g id="path3302" opacity="0.6997" filter="url(#filter3266)" enable-background="new    ">
				
					<linearGradient id="SVGID_8_" gradientUnits="userSpaceOnUse" x1="60.0251" y1="901.8994" x2="60.7441" y2="885.5491" gradientTransform="matrix(-0.1267 1.3038 2.0874 0.0573 -1483.2986 823.5268)">
					<stop  offset="0" style="stop-color:#424242"/>
					<stop  offset="1" style="stop-color:#B4B4B4"/>
				</linearGradient>
				<path fill="url(#SVGID_8_)" d="M388.924,974.889c-18.105-0.498-31.867-10.497-30.719-22.32
					c1.051-10.814,13.926-19.452,30.479-20.446l2.322,21.347L388.924,974.889z"/>
			</g>
			
				<path id="path3364" sodipodi:nodetypes="cc" fill="none" stroke="#7D7D7D" stroke-width="3.1" stroke-linecap="round" stroke-linejoin="round" d="
				M359.429,73.791H52.286"/>
			
				<path id="path3646" sodipodi:nodetypes="cc" fill="none" stroke="#7D7D7D" stroke-width="3.1" stroke-linecap="round" stroke-linejoin="round" d="
				M359.142,149.934H52"/>
			
				<path id="path3650" sodipodi:nodetypes="cc" fill="none" stroke="#7D7D7D" stroke-width="3.1" stroke-linecap="round" stroke-linejoin="round" d="
				M359.142,293.791H52"/>
			
				<path id="path3652" sodipodi:nodetypes="cc" fill="none" stroke="#7D7D7D" stroke-width="3.1" stroke-linecap="round" stroke-linejoin="round" d="
				M359.142,369.934H52"/>
			
				<path id="path3654" sodipodi:nodetypes="cc" fill="none" stroke="#7D7D7D" stroke-width="3.1" stroke-linecap="round" stroke-linejoin="round" d="
				M359.142,443.791H52"/>
			
				<path id="path3656" sodipodi:nodetypes="cc" fill="none" stroke="#7D7D7D" stroke-width="3.1" stroke-linecap="round" stroke-linejoin="round" d="
				M359.142,518.362H52"/>
			
				<path id="path3660" sodipodi:nodetypes="cc" fill="none" stroke="#7D7D7D" stroke-width="3.1" stroke-linecap="round" stroke-linejoin="round" d="
				M359.142,794.647H52"/>
			
				<path id="path3662" sodipodi:nodetypes="cc" fill="none" stroke="#7D7D7D" stroke-width="3.1" stroke-linecap="round" stroke-linejoin="round" d="
				M359.142,954.22H52"/>
			<g id="g3822" transform="translate(-0.9729143,154.97085)" opacity="0.5052">
				<path id="path3824" sodipodi:nodetypes="cc" fill="none" stroke="#2C2C2C" stroke-width="5" stroke-linejoin="round" d="
					M61.429,45.219v45.714"/>
				<path id="path3826" sodipodi:nodetypes="cc" fill="none" stroke="#2C2C2C" stroke-width="5" stroke-linejoin="round" d="
					M76.579,45.219v45.714"/>
				<path id="path3828" sodipodi:nodetypes="cc" fill="none" stroke="#2C2C2C" stroke-width="5" stroke-linejoin="round" d="
					M91.729,45.219v45.714"/>
				<path id="path3830" sodipodi:nodetypes="cc" fill="none" stroke="#2C2C2C" stroke-width="5" stroke-linejoin="round" d="
					M122.03,45.219v45.714"/>
				<path id="path3832" sodipodi:nodetypes="cc" fill="none" stroke="#2C2C2C" stroke-width="5" stroke-linejoin="round" d="
					M152.331,45.219v45.714"/>
				<path id="path3834" sodipodi:nodetypes="cc" fill="none" stroke="#2C2C2C" stroke-width="5" stroke-linejoin="round" d="
					M182.632,45.219v45.714"/>
				<path id="path3836" sodipodi:nodetypes="cc" fill="none" stroke="#2C2C2C" stroke-width="5" stroke-linejoin="round" d="
					M197.782,45.219v45.714"/>
				<path id="path3838" sodipodi:nodetypes="cc" fill="none" stroke="#2C2C2C" stroke-width="5" stroke-linejoin="round" d="
					M228.083,45.219v45.714"/>
				<path id="path3840" sodipodi:nodetypes="cc" fill="none" stroke="#2C2C2C" stroke-width="5" stroke-linejoin="round" d="
					M243.233,45.219v45.714"/>
				<path id="path3842" sodipodi:nodetypes="cc" fill="none" stroke="#2C2C2C" stroke-width="5" stroke-linejoin="round" d="
					M288.684,45.219v45.714"/>
				<path id="path3844" sodipodi:nodetypes="cc" fill="none" stroke="#2C2C2C" stroke-width="5" stroke-linejoin="round" d="
					M318.984,45.219v45.714"/>
				<path id="path3846" sodipodi:nodetypes="cc" fill="none" stroke="#2C2C2C" stroke-width="5" stroke-linejoin="round" d="
					M334.135,45.219v45.714"/>
				<path id="path3848" sodipodi:nodetypes="cc" fill="none" stroke="#2C2C2C" stroke-width="5" stroke-linejoin="round" d="
					M349.285,45.219v45.714"/>
				<path id="path3850" sodipodi:nodetypes="cc" fill="none" stroke="#2C2C2C" stroke-width="5" stroke-linejoin="round" d="
					M258.383,45.219v45.714"/>
				<path id="path3852" sodipodi:nodetypes="cc" fill="none" stroke="#2C2C2C" stroke-width="5" stroke-linejoin="round" d="
					M212.933,45.219v45.714"/>
				<path id="path3854" sodipodi:nodetypes="cc" fill="none" stroke="#2C2C2C" stroke-width="5" stroke-linejoin="round" d="
					M167.481,45.219v45.714"/>
				<path id="path3856" sodipodi:nodetypes="cc" fill="none" stroke="#2C2C2C" stroke-width="5" stroke-linejoin="round" d="
					M137.181,45.219v45.714"/>
				<path id="path3858" sodipodi:nodetypes="cc" fill="none" stroke="#2C2C2C" stroke-width="5" stroke-linejoin="round" d="
					M106.88,45.219v45.714"/>
				<path id="path3860" sodipodi:nodetypes="cc" fill="none" stroke="#2C2C2C" stroke-width="5" stroke-linejoin="round" d="
					M273.533,45.219v45.714"/>
				<path id="path3862" sodipodi:nodetypes="cc" fill="none" stroke="#2C2C2C" stroke-width="5" stroke-linejoin="round" d="
					M303.834,45.219v45.714"/>
			</g>
			<g id="g4032" transform="matrix(1,0,0,2.7677665,-1.8821789,446.22423)" opacity="0.5052">
				<path id="path4034" sodipodi:nodetypes="cc" fill="none" stroke="#2C2C2C" stroke-width="3.0054" stroke-linejoin="round" d="
					M61.429,45.219v45.714"/>
				<path id="path4036" sodipodi:nodetypes="cc" fill="none" stroke="#2C2C2C" stroke-width="3.0054" stroke-linejoin="round" d="
					M76.579,45.219v45.714"/>
				<path id="path4038" sodipodi:nodetypes="cc" fill="none" stroke="#2C2C2C" stroke-width="3.0054" stroke-linejoin="round" d="
					M91.73,45.219v45.714"/>
				<path id="path4040" sodipodi:nodetypes="cc" fill="none" stroke="#2C2C2C" stroke-width="3.0054" stroke-linejoin="round" d="
					M122.03,45.219v45.714"/>
				<path id="path4042" sodipodi:nodetypes="cc" fill="none" stroke="#2C2C2C" stroke-width="3.0054" stroke-linejoin="round" d="
					M152.331,45.219v45.714"/>
				<path id="path4044" sodipodi:nodetypes="cc" fill="none" stroke="#2C2C2C" stroke-width="3.0054" stroke-linejoin="round" d="
					M182.631,45.219v45.714"/>
				<path id="path4046" sodipodi:nodetypes="cc" fill="none" stroke="#2C2C2C" stroke-width="3.0054" stroke-linejoin="round" d="
					M197.782,45.219v45.714"/>
				<path id="path4048" sodipodi:nodetypes="cc" fill="none" stroke="#2C2C2C" stroke-width="3.0054" stroke-linejoin="round" d="
					M228.083,45.219v45.714"/>
				<path id="path4050" sodipodi:nodetypes="cc" fill="none" stroke="#2C2C2C" stroke-width="3.0054" stroke-linejoin="round" d="
					M243.233,45.219v45.714"/>
				<path id="path4052" sodipodi:nodetypes="cc" fill="none" stroke="#2C2C2C" stroke-width="3.0054" stroke-linejoin="round" d="
					M288.685,45.219v45.714"/>
				<path id="path4054" sodipodi:nodetypes="cc" fill="none" stroke="#2C2C2C" stroke-width="3.0054" stroke-linejoin="round" d="
					M318.985,45.219v45.714"/>
				<path id="path4056" sodipodi:nodetypes="cc" fill="none" stroke="#2C2C2C" stroke-width="3.0054" stroke-linejoin="round" d="
					M334.136,45.219v45.714"/>
				<path id="path4058" sodipodi:nodetypes="cc" fill="none" stroke="#2C2C2C" stroke-width="3.0054" stroke-linejoin="round" d="
					M349.286,45.219v45.714"/>
				<path id="path4060" sodipodi:nodetypes="cc" fill="none" stroke="#2C2C2C" stroke-width="3.0054" stroke-linejoin="round" d="
					M258.384,45.219v45.714"/>
				<path id="path4062" sodipodi:nodetypes="cc" fill="none" stroke="#2C2C2C" stroke-width="3.0054" stroke-linejoin="round" d="
					M212.932,45.219v45.714"/>
				<path id="path4064" sodipodi:nodetypes="cc" fill="none" stroke="#2C2C2C" stroke-width="3.0054" stroke-linejoin="round" d="
					M167.481,45.219v45.714"/>
				<path id="path4066" sodipodi:nodetypes="cc" fill="none" stroke="#2C2C2C" stroke-width="3.0054" stroke-linejoin="round" d="
					M137.181,45.219v45.714"/>
				<path id="path4068" sodipodi:nodetypes="cc" fill="none" stroke="#2C2C2C" stroke-width="3.0054" stroke-linejoin="round" d="
					M106.88,45.219v45.714"/>
				<path id="path4070" sodipodi:nodetypes="cc" fill="none" stroke="#2C2C2C" stroke-width="3.0054" stroke-linejoin="round" d="
					M273.534,45.219v45.714"/>
				<path id="path4072" sodipodi:nodetypes="cc" fill="none" stroke="#2C2C2C" stroke-width="3.0054" stroke-linejoin="round" d="
					M303.835,45.219v45.714"/>
			</g>
			<g id="g4116" transform="matrix(1,0,0,2.7456693,-0.5182831,768.95703)" opacity="0.5052">
				<path id="path4118" sodipodi:nodetypes="cc" fill="none" stroke="#616161" stroke-width="0.6035" d="M61.429,45.219v45.714"/>
				<path id="path4120" sodipodi:nodetypes="cc" fill="none" stroke="#616161" stroke-width="0.6035" d="M76.579,45.219v45.714"/>
				<path id="path4122" sodipodi:nodetypes="cc" fill="none" stroke="#616161" stroke-width="0.6035" d="M91.729,45.219v45.714"/>
				<path id="path4124" sodipodi:nodetypes="cc" fill="none" stroke="#616161" stroke-width="0.6035" d="M122.03,45.219v45.714"/>
				<path id="path4126" sodipodi:nodetypes="cc" fill="none" stroke="#616161" stroke-width="0.6035" d="M152.331,45.219v45.714"/>
				<path id="path4128" sodipodi:nodetypes="cc" fill="none" stroke="#616161" stroke-width="0.6035" d="M182.632,45.219v45.714"/>
				<path id="path4130" sodipodi:nodetypes="cc" fill="none" stroke="#616161" stroke-width="0.6035" d="M197.782,45.219v45.714"/>
				<path id="path4132" sodipodi:nodetypes="cc" fill="none" stroke="#616161" stroke-width="0.6035" d="M228.083,45.219v45.714"/>
				<path id="path4134" sodipodi:nodetypes="cc" fill="none" stroke="#616161" stroke-width="0.6035" d="M243.233,45.219v45.714"/>
				<path id="path4136" sodipodi:nodetypes="cc" fill="none" stroke="#616161" stroke-width="0.6035" d="M288.684,45.219v45.714"/>
				<path id="path4138" sodipodi:nodetypes="cc" fill="none" stroke="#616161" stroke-width="0.6035" d="M318.985,45.219v45.714"/>
				<path id="path4140" sodipodi:nodetypes="cc" fill="none" stroke="#616161" stroke-width="0.6035" d="M334.135,45.219v45.714"/>
				<path id="path4142" sodipodi:nodetypes="cc" fill="none" stroke="#616161" stroke-width="0.6035" d="M349.286,45.219v45.714"/>
				<path id="path4144" sodipodi:nodetypes="cc" fill="none" stroke="#616161" stroke-width="0.6035" d="M258.383,45.219v45.714"/>
				<path id="path4146" sodipodi:nodetypes="cc" fill="none" stroke="#616161" stroke-width="0.6035" d="M212.933,45.219v45.714"/>
				<path id="path4148" sodipodi:nodetypes="cc" fill="none" stroke="#616161" stroke-width="0.6035" d="M167.481,45.219v45.714"/>
				<path id="path4150" sodipodi:nodetypes="cc" fill="none" stroke="#616161" stroke-width="0.6035" d="M137.181,45.219v45.714"/>
				<path id="path4152" sodipodi:nodetypes="cc" fill="none" stroke="#616161" stroke-width="0.6035" d="M106.88,45.219v45.714"/>
				<path id="path4154" sodipodi:nodetypes="cc" fill="none" stroke="#616161" stroke-width="0.6035" d="M273.534,45.219v45.714"/>
				<path id="path4156" sodipodi:nodetypes="cc" fill="none" stroke="#616161" stroke-width="0.6035" d="M303.834,45.219v45.714"/>
			</g>
			<g id="g3948" transform="translate(-2.3368139,377.7704)" opacity="0.5052">
				<path id="path3950" sodipodi:nodetypes="cc" fill="none" stroke="#616161" d="M61.429,45.219v45.715"/>
				<path id="path3952" sodipodi:nodetypes="cc" fill="none" stroke="#616161" d="M76.579,45.219v45.715"/>
				<path id="path3954" sodipodi:nodetypes="cc" fill="none" stroke="#616161" d="M91.73,45.219v45.715"/>
				<path id="path3956" sodipodi:nodetypes="cc" fill="none" stroke="#616161" d="M122.03,45.219v45.715"/>
				<path id="path3958" sodipodi:nodetypes="cc" fill="none" stroke="#616161" d="M152.331,45.219v45.715"/>
				<path id="path3960" sodipodi:nodetypes="cc" fill="none" stroke="#616161" d="M182.631,45.219v45.715"/>
				<path id="path3962" sodipodi:nodetypes="cc" fill="none" stroke="#616161" d="M197.782,45.219v45.715"/>
				<path id="path3964" sodipodi:nodetypes="cc" fill="none" stroke="#616161" d="M228.083,45.219v45.715"/>
				<path id="path3966" sodipodi:nodetypes="cc" fill="none" stroke="#616161" d="M243.233,45.219v45.715"/>
				<path id="path3968" sodipodi:nodetypes="cc" fill="none" stroke="#616161" d="M288.684,45.219v45.715"/>
				<path id="path3970" sodipodi:nodetypes="cc" fill="none" stroke="#616161" d="M318.985,45.219v45.715"/>
				<path id="path3972" sodipodi:nodetypes="cc" fill="none" stroke="#616161" d="M334.135,45.219v45.715"/>
				<path id="path3974" sodipodi:nodetypes="cc" fill="none" stroke="#616161" d="M349.286,45.219v45.715"/>
				<path id="path3976" sodipodi:nodetypes="cc" fill="none" stroke="#616161" d="M258.383,45.219v45.715"/>
				<path id="path3978" sodipodi:nodetypes="cc" fill="none" stroke="#616161" d="M212.932,45.219v45.715"/>
				<path id="path3980" sodipodi:nodetypes="cc" fill="none" stroke="#616161" d="M167.481,45.219v45.715"/>
				<path id="path3982" sodipodi:nodetypes="cc" fill="none" stroke="#616161" d="M137.18,45.219v45.715"/>
				<path id="path3984" sodipodi:nodetypes="cc" fill="none" stroke="#616161" d="M106.88,45.219v45.715"/>
				<path id="path3986" sodipodi:nodetypes="cc" fill="none" stroke="#616161" d="M273.534,45.219v45.715"/>
				<path id="path3988" sodipodi:nodetypes="cc" fill="none" stroke="#616161" d="M303.835,45.219v45.715"/>
			</g>
			<g id="g3730" transform="translate(-0.5050763,7.0710678)" opacity="0.5052">
				<path id="path3684" sodipodi:nodetypes="cc" fill="none" stroke="#616161" d="M61.429,45.219v45.714"/>
				<path id="path3686" sodipodi:nodetypes="cc" fill="none" stroke="#616161" d="M76.579,45.219v45.714"/>
				<path id="path3688" sodipodi:nodetypes="cc" fill="none" stroke="#616161" d="M91.729,45.219v45.714"/>
				<path id="path3690" sodipodi:nodetypes="cc" fill="none" stroke="#616161" d="M122.03,45.219v45.714"/>
				<path id="path3692" sodipodi:nodetypes="cc" fill="none" stroke="#616161" d="M152.331,45.219v45.714"/>
				<path id="path3694" sodipodi:nodetypes="cc" fill="none" stroke="#616161" d="M182.632,45.219v45.714"/>
				<path id="path3696" sodipodi:nodetypes="cc" fill="none" stroke="#616161" d="M197.782,45.219v45.714"/>
				<path id="path3698" sodipodi:nodetypes="cc" fill="none" stroke="#616161" d="M228.083,45.219v45.714"/>
				<path id="path3700" sodipodi:nodetypes="cc" fill="none" stroke="#616161" d="M243.233,45.219v45.714"/>
				<path id="path3702" sodipodi:nodetypes="cc" fill="none" stroke="#616161" d="M288.684,45.219v45.714"/>
				<path id="path3704" sodipodi:nodetypes="cc" fill="none" stroke="#616161" d="M318.985,45.219v45.714"/>
				<path id="path3706" sodipodi:nodetypes="cc" fill="none" stroke="#616161" d="M334.136,45.219v45.714"/>
				<path id="path3708" sodipodi:nodetypes="cc" fill="none" stroke="#616161" d="M349.286,45.219v45.714"/>
				<path id="path3710" sodipodi:nodetypes="cc" fill="none" stroke="#616161" d="M258.384,45.219v45.714"/>
				<path id="path3712" sodipodi:nodetypes="cc" fill="none" stroke="#616161" d="M212.932,45.219v45.714"/>
				<path id="path3714" sodipodi:nodetypes="cc" fill="none" stroke="#616161" d="M167.481,45.219v45.714"/>
				<path id="path3716" sodipodi:nodetypes="cc" fill="none" stroke="#616161" d="M137.181,45.219v45.714"/>
				<path id="path3724" sodipodi:nodetypes="cc" fill="none" stroke="#616161" d="M106.88,45.219v45.714"/>
				<path id="path3726" sodipodi:nodetypes="cc" fill="none" stroke="#616161" d="M273.534,45.219v45.714"/>
				<path id="path3728" sodipodi:nodetypes="cc" fill="none" stroke="#616161" d="M303.835,45.219v45.714"/>
			</g>
			<g id="g3990" transform="translate(-6.36508e-2,450.48108)" opacity="0.5052">
				<path id="path3992" sodipodi:nodetypes="cc" fill="none" stroke="#616161" d="M61.429,45.219v45.715"/>
				<path id="path3994" sodipodi:nodetypes="cc" fill="none" stroke="#616161" d="M76.579,45.219v45.715"/>
				<path id="path3996" sodipodi:nodetypes="cc" fill="none" stroke="#616161" d="M91.729,45.219v45.715"/>
				<path id="path3998" sodipodi:nodetypes="cc" fill="none" stroke="#616161" d="M122.03,45.219v45.715"/>
				<path id="path4000" sodipodi:nodetypes="cc" fill="none" stroke="#616161" d="M152.331,45.219v45.715"/>
				<path id="path4002" sodipodi:nodetypes="cc" fill="none" stroke="#616161" d="M182.632,45.219v45.715"/>
				<path id="path4004" sodipodi:nodetypes="cc" fill="none" stroke="#616161" d="M197.782,45.219v45.715"/>
				<path id="path4006" sodipodi:nodetypes="cc" fill="none" stroke="#616161" d="M228.083,45.219v45.715"/>
				<path id="path4008" sodipodi:nodetypes="cc" fill="none" stroke="#616161" d="M243.233,45.219v45.715"/>
				<path id="path4010" sodipodi:nodetypes="cc" fill="none" stroke="#616161" d="M288.684,45.219v45.715"/>
				<path id="path4012" sodipodi:nodetypes="cc" fill="none" stroke="#616161" d="M318.985,45.219v45.715"/>
				<path id="path4014" sodipodi:nodetypes="cc" fill="none" stroke="#616161" d="M334.136,45.219v45.715"/>
				<path id="path4016" sodipodi:nodetypes="cc" fill="none" stroke="#616161" d="M349.286,45.219v45.715"/>
				<path id="path4018" sodipodi:nodetypes="cc" fill="none" stroke="#616161" d="M258.384,45.219v45.715"/>
				<path id="path4020" sodipodi:nodetypes="cc" fill="none" stroke="#616161" d="M212.932,45.219v45.715"/>
				<path id="path4022" sodipodi:nodetypes="cc" fill="none" stroke="#616161" d="M167.481,45.219v45.715"/>
				<path id="path4024" sodipodi:nodetypes="cc" fill="none" stroke="#616161" d="M137.181,45.219v45.715"/>
				<path id="path4026" sodipodi:nodetypes="cc" fill="none" stroke="#616161" d="M106.88,45.219v45.715"/>
				<path id="path4028" sodipodi:nodetypes="cc" fill="none" stroke="#616161" d="M273.534,45.219v45.715"/>
				<path id="path4030" sodipodi:nodetypes="cc" fill="none" stroke="#616161" d="M303.835,45.219v45.715"/>
			</g>
			<g id="g4074" transform="matrix(1,0,0,2.7677664,0.8456143,607.36387)" opacity="0.5052">
				<path id="path4076" sodipodi:nodetypes="cc" fill="none" stroke="#616161" stroke-width="0.6011" d="M61.428,45.219v45.714"/>
				<path id="path4078" sodipodi:nodetypes="cc" fill="none" stroke="#616161" stroke-width="0.6011" d="M76.579,45.219v45.714"/>
				<path id="path4080" sodipodi:nodetypes="cc" fill="none" stroke="#616161" stroke-width="0.6011" d="M91.729,45.219v45.714"/>
				<path id="path4082" sodipodi:nodetypes="cc" fill="none" stroke="#616161" stroke-width="0.6011" d="M122.03,45.219v45.714"/>
				<path id="path4084" sodipodi:nodetypes="cc" fill="none" stroke="#616161" stroke-width="0.6011" d="M152.331,45.219v45.714"/>
				<path id="path4086" sodipodi:nodetypes="cc" fill="none" stroke="#616161" stroke-width="0.6011" d="M182.632,45.219v45.714"/>
				<path id="path4088" sodipodi:nodetypes="cc" fill="none" stroke="#616161" stroke-width="0.6011" d="M197.782,45.219v45.714"/>
				<path id="path4090" sodipodi:nodetypes="cc" fill="none" stroke="#616161" stroke-width="0.6011" d="M228.083,45.219v45.714"/>
				<path id="path4092" sodipodi:nodetypes="cc" fill="none" stroke="#616161" stroke-width="0.6011" d="M243.233,45.219v45.714"/>
				<path id="path4094" sodipodi:nodetypes="cc" fill="none" stroke="#616161" stroke-width="0.6011" d="M288.684,45.219v45.714"/>
				<path id="path4096" sodipodi:nodetypes="cc" fill="none" stroke="#616161" stroke-width="0.6011" d="M318.985,45.219v45.714"/>
				<path id="path4098" sodipodi:nodetypes="cc" fill="none" stroke="#616161" stroke-width="0.6011" d="M334.135,45.219v45.714"/>
				<path id="path4100" sodipodi:nodetypes="cc" fill="none" stroke="#616161" stroke-width="0.6011" d="M349.285,45.219v45.714"/>
				<path id="path4102" sodipodi:nodetypes="cc" fill="none" stroke="#616161" stroke-width="0.6011" d="M258.384,45.219v45.714"/>
				<path id="path4104" sodipodi:nodetypes="cc" fill="none" stroke="#616161" stroke-width="0.6011" d="M212.932,45.219v45.714"/>
				<path id="path4106" sodipodi:nodetypes="cc" fill="none" stroke="#616161" stroke-width="0.6011" d="M167.481,45.219v45.714"/>
				<path id="path4108" sodipodi:nodetypes="cc" fill="none" stroke="#616161" stroke-width="0.6011" d="M137.18,45.219v45.714"/>
				<path id="path4110" sodipodi:nodetypes="cc" fill="none" stroke="#616161" stroke-width="0.6011" d="M106.88,45.219v45.714"/>
				<path id="path4112" sodipodi:nodetypes="cc" fill="none" stroke="#616161" stroke-width="0.6011" d="M273.534,45.219v45.714"/>
				<path id="path4114" sodipodi:nodetypes="cc" fill="none" stroke="#616161" stroke-width="0.6011" d="M303.835,45.219v45.714"/>
			</g>
			<g id="g3906" transform="translate(0.3909831,302.53434)" opacity="0.5052">
				<path id="path3908" sodipodi:nodetypes="cc" fill="none" stroke="#616161" d="M61.429,45.219v45.714"/>
				<path id="path3910" sodipodi:nodetypes="cc" fill="none" stroke="#616161" d="M76.579,45.219v45.714"/>
				<path id="path3912" sodipodi:nodetypes="cc" fill="none" stroke="#616161" d="M91.729,45.219v45.714"/>
				<path id="path3914" sodipodi:nodetypes="cc" fill="none" stroke="#616161" d="M122.03,45.219v45.714"/>
				<path id="path3916" sodipodi:nodetypes="cc" fill="none" stroke="#616161" d="M152.331,45.219v45.714"/>
				<path id="path3918" sodipodi:nodetypes="cc" fill="none" stroke="#616161" d="M182.632,45.219v45.714"/>
				<path id="path3920" sodipodi:nodetypes="cc" fill="none" stroke="#616161" d="M197.782,45.219v45.714"/>
				<path id="path3922" sodipodi:nodetypes="cc" fill="none" stroke="#616161" d="M228.083,45.219v45.714"/>
				<path id="path3924" sodipodi:nodetypes="cc" fill="none" stroke="#616161" d="M243.233,45.219v45.714"/>
				<path id="path3926" sodipodi:nodetypes="cc" fill="none" stroke="#616161" d="M288.685,45.219v45.714"/>
				<path id="path3928" sodipodi:nodetypes="cc" fill="none" stroke="#616161" d="M318.986,45.219v45.714"/>
				<path id="path3930" sodipodi:nodetypes="cc" fill="none" stroke="#616161" d="M334.136,45.219v45.714"/>
				<path id="path3932" sodipodi:nodetypes="cc" fill="none" stroke="#616161" d="M349.286,45.219v45.714"/>
				<path id="path3934" sodipodi:nodetypes="cc" fill="none" stroke="#616161" d="M258.384,45.219v45.714"/>
				<path id="path3936" sodipodi:nodetypes="cc" fill="none" stroke="#616161" d="M212.932,45.219v45.714"/>
				<path id="path3938" sodipodi:nodetypes="cc" fill="none" stroke="#616161" d="M167.481,45.219v45.714"/>
				<path id="path3940" sodipodi:nodetypes="cc" fill="none" stroke="#616161" d="M137.18,45.219v45.714"/>
				<path id="path3942" sodipodi:nodetypes="cc" fill="none" stroke="#616161" d="M106.88,45.219v45.714"/>
				<path id="path3944" sodipodi:nodetypes="cc" fill="none" stroke="#616161" d="M273.534,45.219v45.714"/>
				<path id="path3946" sodipodi:nodetypes="cc" fill="none" stroke="#616161" d="M303.835,45.219v45.714"/>
			</g>
			<g id="g3780" transform="translate(-0.6997545,82.260172)" opacity="0.5052">
				<path id="path3782" sodipodi:nodetypes="cc" fill="none" stroke="#616161" d="M61.428,45.219v45.714"/>
				<path id="path3784" sodipodi:nodetypes="cc" fill="none" stroke="#616161" d="M76.579,45.219v45.714"/>
				<path id="path3786" sodipodi:nodetypes="cc" fill="none" stroke="#616161" d="M91.729,45.219v45.714"/>
				<path id="path3788" sodipodi:nodetypes="cc" fill="none" stroke="#616161" d="M122.03,45.219v45.714"/>
				<path id="path3790" sodipodi:nodetypes="cc" fill="none" stroke="#616161" d="M152.331,45.219v45.714"/>
				<path id="path3792" sodipodi:nodetypes="cc" fill="none" stroke="#616161" d="M182.632,45.219v45.714"/>
				<path id="path3794" sodipodi:nodetypes="cc" fill="none" stroke="#616161" d="M197.782,45.219v45.714"/>
				<path id="path3796" sodipodi:nodetypes="cc" fill="none" stroke="#616161" d="M228.083,45.219v45.714"/>
				<path id="path3798" sodipodi:nodetypes="cc" fill="none" stroke="#616161" d="M243.233,45.219v45.714"/>
				<path id="path3800" sodipodi:nodetypes="cc" fill="none" stroke="#616161" d="M288.684,45.219v45.714"/>
				<path id="path3802" sodipodi:nodetypes="cc" fill="none" stroke="#616161" d="M318.985,45.219v45.714"/>
				<path id="path3804" sodipodi:nodetypes="cc" fill="none" stroke="#616161" d="M334.135,45.219v45.714"/>
				<path id="path3806" sodipodi:nodetypes="cc" fill="none" stroke="#616161" d="M349.285,45.219v45.714"/>
				<path id="path3808" sodipodi:nodetypes="cc" fill="none" stroke="#616161" d="M258.383,45.219v45.714"/>
				<path id="path3810" sodipodi:nodetypes="cc" fill="none" stroke="#616161" d="M212.932,45.219v45.714"/>
				<path id="path3812" sodipodi:nodetypes="cc" fill="none" stroke="#616161" d="M167.481,45.219v45.714"/>
				<path id="path3814" sodipodi:nodetypes="cc" fill="none" stroke="#616161" d="M137.18,45.219v45.714"/>
				<path id="path3816" sodipodi:nodetypes="cc" fill="none" stroke="#616161" d="M106.88,45.219v45.714"/>
				<path id="path3818" sodipodi:nodetypes="cc" fill="none" stroke="#616161" d="M273.533,45.219v45.714"/>
				<path id="path3820" sodipodi:nodetypes="cc" fill="none" stroke="#616161" d="M303.834,45.219v45.714"/>
			</g>
			<g id="g3864" transform="translate(-1.4275466,227.70183)" opacity="0.5052">
				<path id="path3866" sodipodi:nodetypes="cc" fill="none" stroke="#616161" d="M61.429,45.219v45.714"/>
				<path id="path3868" sodipodi:nodetypes="cc" fill="none" stroke="#616161" d="M76.579,45.219v45.714"/>
				<path id="path3870" sodipodi:nodetypes="cc" fill="none" stroke="#616161" d="M91.729,45.219v45.714"/>
				<path id="path3872" sodipodi:nodetypes="cc" fill="none" stroke="#616161" d="M122.03,45.219v45.714"/>
				<path id="path3874" sodipodi:nodetypes="cc" fill="none" stroke="#616161" d="M152.331,45.219v45.714"/>
				<path id="path3876" sodipodi:nodetypes="cc" fill="none" stroke="#616161" d="M182.632,45.219v45.714"/>
				<path id="path3878" sodipodi:nodetypes="cc" fill="none" stroke="#616161" d="M197.782,45.219v45.714"/>
				<path id="path3880" sodipodi:nodetypes="cc" fill="none" stroke="#616161" d="M228.083,45.219v45.714"/>
				<path id="path3882" sodipodi:nodetypes="cc" fill="none" stroke="#616161" d="M243.233,45.219v45.714"/>
				<path id="path3884" sodipodi:nodetypes="cc" fill="none" stroke="#616161" d="M288.684,45.219v45.714"/>
				<path id="path3886" sodipodi:nodetypes="cc" fill="none" stroke="#616161" d="M318.985,45.219v45.714"/>
				<path id="path3888" sodipodi:nodetypes="cc" fill="none" stroke="#616161" d="M334.136,45.219v45.714"/>
				<path id="path3890" sodipodi:nodetypes="cc" fill="none" stroke="#616161" d="M349.287,45.219v45.714"/>
				<path id="path3892" sodipodi:nodetypes="cc" fill="none" stroke="#616161" d="M258.383,45.219v45.714"/>
				<path id="path3894" sodipodi:nodetypes="cc" fill="none" stroke="#616161" d="M212.933,45.219v45.714"/>
				<path id="path3896" sodipodi:nodetypes="cc" fill="none" stroke="#616161" d="M167.481,45.219v45.714"/>
				<path id="path3898" sodipodi:nodetypes="cc" fill="none" stroke="#616161" d="M137.181,45.219v45.714"/>
				<path id="path3900" sodipodi:nodetypes="cc" fill="none" stroke="#616161" d="M106.88,45.219v45.714"/>
				<path id="path3902" sodipodi:nodetypes="cc" fill="none" stroke="#616161" d="M273.534,45.219v45.714"/>
				<path id="path3904" sodipodi:nodetypes="cc" fill="none" stroke="#616161" d="M303.834,45.219v45.714"/>
			</g>
		</g>
	</g>
</g>
</svg>
