G75*
%MOIN*%
%OFA0B0*%
%FSLAX25Y25*%
%IPPOS*%
%LPD*%
%AMOC8*
5,1,8,0,0,1.08239X$1,22.5*
%
%ADD10C,0.00600*%
%ADD11C,0.02600*%
D10*
X0003300Y0003850D02*
X0003300Y0062250D01*
X0080200Y0062250D01*
X0080200Y0003850D01*
X0003300Y0003850D01*
X0003300Y0004444D02*
X0080200Y0004444D01*
X0080200Y0005043D02*
X0003300Y0005043D01*
X0003300Y0005641D02*
X0080200Y0005641D01*
X0080200Y0006240D02*
X0003300Y0006240D01*
X0003300Y0006838D02*
X0080200Y0006838D01*
X0080200Y0007437D02*
X0003300Y0007437D01*
X0003300Y0008035D02*
X0080200Y0008035D01*
X0080200Y0008634D02*
X0003300Y0008634D01*
X0003300Y0009232D02*
X0023707Y0009232D01*
X0024089Y0008850D02*
X0025911Y0008850D01*
X0027200Y0010139D01*
X0027200Y0011961D01*
X0026200Y0012961D01*
X0026200Y0024139D01*
X0027200Y0025139D01*
X0027200Y0026961D01*
X0026200Y0027961D01*
X0026200Y0034547D01*
X0025200Y0035547D01*
X0025200Y0036961D01*
X0023911Y0038250D01*
X0022089Y0038250D01*
X0020800Y0036961D01*
X0020800Y0035139D01*
X0022089Y0033850D01*
X0023503Y0033850D01*
X0023800Y0033553D01*
X0023800Y0027961D01*
X0022800Y0026961D01*
X0022800Y0025139D01*
X0023800Y0024139D01*
X0023800Y0012961D01*
X0022800Y0011961D01*
X0022800Y0010139D01*
X0024089Y0008850D01*
X0023108Y0009831D02*
X0003300Y0009831D01*
X0003300Y0010429D02*
X0022800Y0010429D01*
X0022800Y0011028D02*
X0003300Y0011028D01*
X0003300Y0011626D02*
X0022800Y0011626D01*
X0023063Y0012225D02*
X0003300Y0012225D01*
X0003300Y0012823D02*
X0023662Y0012823D01*
X0023800Y0013422D02*
X0022483Y0013422D01*
X0021911Y0012850D02*
X0023200Y0014139D01*
X0023200Y0015961D01*
X0021911Y0017250D01*
X0020497Y0017250D01*
X0020200Y0017547D01*
X0020200Y0025139D01*
X0021200Y0026139D01*
X0021200Y0027961D01*
X0019911Y0029250D01*
X0018089Y0029250D01*
X0016800Y0027961D01*
X0016800Y0026139D01*
X0017800Y0025139D01*
X0017800Y0016553D01*
X0018503Y0015850D01*
X0018800Y0015553D01*
X0018800Y0014139D01*
X0020089Y0012850D01*
X0021911Y0012850D01*
X0023081Y0014020D02*
X0023800Y0014020D01*
X0023800Y0014619D02*
X0023200Y0014619D01*
X0023200Y0015217D02*
X0023800Y0015217D01*
X0023800Y0015816D02*
X0023200Y0015816D01*
X0022747Y0016414D02*
X0023800Y0016414D01*
X0023800Y0017013D02*
X0022148Y0017013D01*
X0023800Y0017611D02*
X0020200Y0017611D01*
X0020200Y0018210D02*
X0023800Y0018210D01*
X0023800Y0018808D02*
X0020200Y0018808D01*
X0020200Y0019407D02*
X0023800Y0019407D01*
X0023800Y0020005D02*
X0020200Y0020005D01*
X0020200Y0020604D02*
X0023800Y0020604D01*
X0023800Y0021202D02*
X0020200Y0021202D01*
X0020200Y0021801D02*
X0023800Y0021801D01*
X0023800Y0022399D02*
X0020200Y0022399D01*
X0020200Y0022998D02*
X0023800Y0022998D01*
X0023800Y0023596D02*
X0020200Y0023596D01*
X0020200Y0024195D02*
X0023744Y0024195D01*
X0023145Y0024793D02*
X0020200Y0024793D01*
X0020453Y0025392D02*
X0022800Y0025392D01*
X0022800Y0025990D02*
X0021052Y0025990D01*
X0021200Y0026589D02*
X0022800Y0026589D01*
X0023026Y0027187D02*
X0021200Y0027187D01*
X0021200Y0027786D02*
X0023625Y0027786D01*
X0023800Y0028384D02*
X0020777Y0028384D01*
X0020178Y0028983D02*
X0023800Y0028983D01*
X0023800Y0029582D02*
X0003300Y0029582D01*
X0003300Y0030180D02*
X0023800Y0030180D01*
X0023800Y0030779D02*
X0003300Y0030779D01*
X0003300Y0031377D02*
X0023800Y0031377D01*
X0023800Y0031976D02*
X0003300Y0031976D01*
X0003300Y0032574D02*
X0023800Y0032574D01*
X0023800Y0033173D02*
X0003300Y0033173D01*
X0003300Y0033771D02*
X0023582Y0033771D01*
X0025000Y0034050D02*
X0023000Y0036050D01*
X0020800Y0036165D02*
X0003300Y0036165D01*
X0003300Y0035567D02*
X0020800Y0035567D01*
X0020971Y0034968D02*
X0003300Y0034968D01*
X0003300Y0034370D02*
X0021569Y0034370D01*
X0020800Y0036764D02*
X0003300Y0036764D01*
X0003300Y0037362D02*
X0021201Y0037362D01*
X0021799Y0037961D02*
X0003300Y0037961D01*
X0003300Y0038559D02*
X0049794Y0038559D01*
X0050392Y0037961D02*
X0024201Y0037961D01*
X0024799Y0037362D02*
X0050991Y0037362D01*
X0051589Y0036764D02*
X0025200Y0036764D01*
X0025200Y0036165D02*
X0052188Y0036165D01*
X0052786Y0035567D02*
X0025200Y0035567D01*
X0025779Y0034968D02*
X0053385Y0034968D01*
X0053983Y0034370D02*
X0026200Y0034370D01*
X0026200Y0033771D02*
X0054582Y0033771D01*
X0055180Y0033173D02*
X0026200Y0033173D01*
X0026200Y0032574D02*
X0055779Y0032574D01*
X0056377Y0031976D02*
X0026200Y0031976D01*
X0026200Y0031377D02*
X0056976Y0031377D01*
X0057574Y0030779D02*
X0026200Y0030779D01*
X0026200Y0030180D02*
X0058173Y0030180D01*
X0058300Y0030053D02*
X0058300Y0028639D01*
X0059589Y0027350D01*
X0061411Y0027350D01*
X0062700Y0028639D01*
X0062700Y0030461D01*
X0061411Y0031750D01*
X0059997Y0031750D01*
X0045700Y0046047D01*
X0045700Y0050547D01*
X0044997Y0051250D01*
X0043997Y0052250D01*
X0030911Y0052250D01*
X0030311Y0052850D01*
X0049003Y0052850D01*
X0061800Y0040053D01*
X0061800Y0038639D01*
X0063089Y0037350D01*
X0064911Y0037350D01*
X0066200Y0038639D01*
X0066200Y0040461D01*
X0064911Y0041750D01*
X0063497Y0041750D01*
X0049997Y0055250D01*
X0027911Y0055250D01*
X0026911Y0056250D01*
X0025089Y0056250D01*
X0023800Y0054961D01*
X0023800Y0053139D01*
X0025089Y0051850D01*
X0026800Y0051850D01*
X0026800Y0050139D01*
X0028089Y0048850D01*
X0029911Y0048850D01*
X0030911Y0049850D01*
X0043003Y0049850D01*
X0043300Y0049553D01*
X0043300Y0045053D01*
X0058300Y0030053D01*
X0058300Y0029582D02*
X0026200Y0029582D01*
X0026200Y0028983D02*
X0058300Y0028983D01*
X0058554Y0028384D02*
X0026200Y0028384D01*
X0026375Y0027786D02*
X0059153Y0027786D01*
X0060500Y0029550D02*
X0044500Y0045550D01*
X0044500Y0050050D01*
X0043500Y0051050D01*
X0029000Y0051050D01*
X0026800Y0051128D02*
X0003300Y0051128D01*
X0003300Y0051726D02*
X0026800Y0051726D01*
X0026800Y0050529D02*
X0003300Y0050529D01*
X0003300Y0049931D02*
X0027008Y0049931D01*
X0027606Y0049332D02*
X0003300Y0049332D01*
X0003300Y0048734D02*
X0043300Y0048734D01*
X0043300Y0049332D02*
X0030394Y0049332D01*
X0030836Y0052325D02*
X0049528Y0052325D01*
X0050127Y0051726D02*
X0044521Y0051726D01*
X0045119Y0051128D02*
X0050725Y0051128D01*
X0051324Y0050529D02*
X0045700Y0050529D01*
X0045700Y0049931D02*
X0051922Y0049931D01*
X0052521Y0049332D02*
X0045700Y0049332D01*
X0045700Y0048734D02*
X0053119Y0048734D01*
X0053718Y0048135D02*
X0045700Y0048135D01*
X0045700Y0047537D02*
X0054316Y0047537D01*
X0054915Y0046938D02*
X0045700Y0046938D01*
X0045700Y0046340D02*
X0055513Y0046340D01*
X0056112Y0045741D02*
X0046006Y0045741D01*
X0046604Y0045143D02*
X0056710Y0045143D01*
X0057309Y0044544D02*
X0047203Y0044544D01*
X0047801Y0043946D02*
X0057907Y0043946D01*
X0058506Y0043347D02*
X0048400Y0043347D01*
X0048998Y0042749D02*
X0059104Y0042749D01*
X0059703Y0042150D02*
X0049597Y0042150D01*
X0050195Y0041552D02*
X0060301Y0041552D01*
X0060900Y0040953D02*
X0050794Y0040953D01*
X0051392Y0040355D02*
X0061498Y0040355D01*
X0061800Y0039756D02*
X0051991Y0039756D01*
X0052589Y0039158D02*
X0061800Y0039158D01*
X0061880Y0038559D02*
X0053188Y0038559D01*
X0053786Y0037961D02*
X0062478Y0037961D01*
X0063077Y0037362D02*
X0054385Y0037362D01*
X0054983Y0036764D02*
X0080200Y0036764D01*
X0080200Y0037362D02*
X0064923Y0037362D01*
X0065522Y0037961D02*
X0080200Y0037961D01*
X0080200Y0038559D02*
X0066120Y0038559D01*
X0066200Y0039158D02*
X0080200Y0039158D01*
X0080200Y0039756D02*
X0066200Y0039756D01*
X0066200Y0040355D02*
X0080200Y0040355D01*
X0080200Y0040953D02*
X0065708Y0040953D01*
X0065110Y0041552D02*
X0080200Y0041552D01*
X0080200Y0042150D02*
X0063097Y0042150D01*
X0062498Y0042749D02*
X0080200Y0042749D01*
X0080200Y0043347D02*
X0061900Y0043347D01*
X0061301Y0043946D02*
X0080200Y0043946D01*
X0080200Y0044544D02*
X0060703Y0044544D01*
X0060104Y0045143D02*
X0080200Y0045143D01*
X0080200Y0045741D02*
X0059506Y0045741D01*
X0058907Y0046340D02*
X0080200Y0046340D01*
X0080200Y0046938D02*
X0058309Y0046938D01*
X0057710Y0047537D02*
X0080200Y0047537D01*
X0080200Y0048135D02*
X0057112Y0048135D01*
X0056513Y0048734D02*
X0080200Y0048734D01*
X0080200Y0049332D02*
X0055915Y0049332D01*
X0055316Y0049931D02*
X0080200Y0049931D01*
X0080200Y0050529D02*
X0054718Y0050529D01*
X0054119Y0051128D02*
X0080200Y0051128D01*
X0080200Y0051726D02*
X0053521Y0051726D01*
X0052922Y0052325D02*
X0080200Y0052325D01*
X0080200Y0052923D02*
X0052324Y0052923D01*
X0051725Y0053522D02*
X0080200Y0053522D01*
X0080200Y0054120D02*
X0051127Y0054120D01*
X0050528Y0054719D02*
X0080200Y0054719D01*
X0080200Y0055318D02*
X0027844Y0055318D01*
X0027245Y0055916D02*
X0080200Y0055916D01*
X0080200Y0056515D02*
X0003300Y0056515D01*
X0003300Y0057113D02*
X0080200Y0057113D01*
X0080200Y0057712D02*
X0003300Y0057712D01*
X0003300Y0058310D02*
X0080200Y0058310D01*
X0080200Y0058909D02*
X0003300Y0058909D01*
X0003300Y0059507D02*
X0080200Y0059507D01*
X0080200Y0060106D02*
X0003300Y0060106D01*
X0003300Y0060704D02*
X0080200Y0060704D01*
X0080200Y0061303D02*
X0003300Y0061303D01*
X0003300Y0061901D02*
X0080200Y0061901D01*
X0064000Y0039550D02*
X0049500Y0054050D01*
X0026000Y0054050D01*
X0024614Y0052325D02*
X0003300Y0052325D01*
X0003300Y0052923D02*
X0024015Y0052923D01*
X0023800Y0053522D02*
X0003300Y0053522D01*
X0003300Y0054120D02*
X0023800Y0054120D01*
X0023800Y0054719D02*
X0003300Y0054719D01*
X0003300Y0055318D02*
X0024156Y0055318D01*
X0024755Y0055916D02*
X0003300Y0055916D01*
X0003300Y0048135D02*
X0043300Y0048135D01*
X0043300Y0047537D02*
X0003300Y0047537D01*
X0003300Y0046938D02*
X0043300Y0046938D01*
X0043300Y0046340D02*
X0003300Y0046340D01*
X0003300Y0045741D02*
X0043300Y0045741D01*
X0043300Y0045143D02*
X0003300Y0045143D01*
X0003300Y0044544D02*
X0043809Y0044544D01*
X0044407Y0043946D02*
X0003300Y0043946D01*
X0003300Y0043347D02*
X0045006Y0043347D01*
X0045604Y0042749D02*
X0003300Y0042749D01*
X0003300Y0042150D02*
X0046203Y0042150D01*
X0046801Y0041552D02*
X0003300Y0041552D01*
X0003300Y0040953D02*
X0047400Y0040953D01*
X0047998Y0040355D02*
X0003300Y0040355D01*
X0003300Y0039756D02*
X0048597Y0039756D01*
X0049195Y0039158D02*
X0003300Y0039158D01*
X0003300Y0028983D02*
X0017822Y0028983D01*
X0017223Y0028384D02*
X0003300Y0028384D01*
X0003300Y0027786D02*
X0016800Y0027786D01*
X0016800Y0027187D02*
X0003300Y0027187D01*
X0003300Y0026589D02*
X0016800Y0026589D01*
X0016948Y0025990D02*
X0003300Y0025990D01*
X0003300Y0025392D02*
X0017547Y0025392D01*
X0017800Y0024793D02*
X0003300Y0024793D01*
X0003300Y0024195D02*
X0017800Y0024195D01*
X0017800Y0023596D02*
X0003300Y0023596D01*
X0003300Y0022998D02*
X0017800Y0022998D01*
X0017800Y0022399D02*
X0003300Y0022399D01*
X0003300Y0021801D02*
X0017800Y0021801D01*
X0017800Y0021202D02*
X0003300Y0021202D01*
X0003300Y0020604D02*
X0017800Y0020604D01*
X0017800Y0020005D02*
X0003300Y0020005D01*
X0003300Y0019407D02*
X0017800Y0019407D01*
X0017800Y0018808D02*
X0003300Y0018808D01*
X0003300Y0018210D02*
X0017800Y0018210D01*
X0017800Y0017611D02*
X0003300Y0017611D01*
X0003300Y0017013D02*
X0017800Y0017013D01*
X0017939Y0016414D02*
X0003300Y0016414D01*
X0003300Y0015816D02*
X0018537Y0015816D01*
X0018800Y0015217D02*
X0003300Y0015217D01*
X0003300Y0014619D02*
X0018800Y0014619D01*
X0018918Y0014020D02*
X0003300Y0014020D01*
X0003300Y0013422D02*
X0019517Y0013422D01*
X0021000Y0015050D02*
X0019000Y0017050D01*
X0019000Y0027050D01*
X0025000Y0026050D02*
X0025000Y0011050D01*
X0027200Y0011028D02*
X0080200Y0011028D01*
X0080200Y0011626D02*
X0027200Y0011626D01*
X0026937Y0012225D02*
X0080200Y0012225D01*
X0080200Y0012823D02*
X0026338Y0012823D01*
X0026200Y0013422D02*
X0080200Y0013422D01*
X0080200Y0014020D02*
X0026200Y0014020D01*
X0026200Y0014619D02*
X0080200Y0014619D01*
X0080200Y0015217D02*
X0026200Y0015217D01*
X0026200Y0015816D02*
X0080200Y0015816D01*
X0080200Y0016414D02*
X0026200Y0016414D01*
X0026200Y0017013D02*
X0080200Y0017013D01*
X0080200Y0017611D02*
X0026200Y0017611D01*
X0026200Y0018210D02*
X0080200Y0018210D01*
X0080200Y0018808D02*
X0026200Y0018808D01*
X0026200Y0019407D02*
X0080200Y0019407D01*
X0080200Y0020005D02*
X0026200Y0020005D01*
X0026200Y0020604D02*
X0080200Y0020604D01*
X0080200Y0021202D02*
X0026200Y0021202D01*
X0026200Y0021801D02*
X0080200Y0021801D01*
X0080200Y0022399D02*
X0026200Y0022399D01*
X0026200Y0022998D02*
X0080200Y0022998D01*
X0080200Y0023596D02*
X0026200Y0023596D01*
X0026256Y0024195D02*
X0080200Y0024195D01*
X0080200Y0024793D02*
X0026855Y0024793D01*
X0027200Y0025392D02*
X0080200Y0025392D01*
X0080200Y0025990D02*
X0027200Y0025990D01*
X0027200Y0026589D02*
X0080200Y0026589D01*
X0080200Y0027187D02*
X0026974Y0027187D01*
X0025000Y0026050D02*
X0025000Y0034050D01*
X0055582Y0036165D02*
X0080200Y0036165D01*
X0080200Y0035567D02*
X0056180Y0035567D01*
X0056779Y0034968D02*
X0080200Y0034968D01*
X0080200Y0034370D02*
X0057377Y0034370D01*
X0057976Y0033771D02*
X0080200Y0033771D01*
X0080200Y0033173D02*
X0058574Y0033173D01*
X0059173Y0032574D02*
X0080200Y0032574D01*
X0080200Y0031976D02*
X0059771Y0031976D01*
X0061784Y0031377D02*
X0080200Y0031377D01*
X0080200Y0030779D02*
X0062383Y0030779D01*
X0062700Y0030180D02*
X0080200Y0030180D01*
X0080200Y0029582D02*
X0062700Y0029582D01*
X0062700Y0028983D02*
X0080200Y0028983D01*
X0080200Y0028384D02*
X0062446Y0028384D01*
X0061847Y0027786D02*
X0080200Y0027786D01*
X0080200Y0010429D02*
X0027200Y0010429D01*
X0026892Y0009831D02*
X0080200Y0009831D01*
X0080200Y0009232D02*
X0026293Y0009232D01*
D11*
X0025000Y0011050D03*
X0021000Y0015050D03*
X0025000Y0026050D03*
X0019000Y0027050D03*
X0013000Y0030550D03*
X0023000Y0036050D03*
X0039500Y0042050D03*
X0029000Y0051050D03*
X0026000Y0054050D03*
X0025500Y0061050D03*
X0015000Y0053550D03*
X0060500Y0029550D03*
X0063500Y0019550D03*
X0064000Y0039550D03*
X0037000Y0005050D03*
M02*
