G75*
%MOIN*%
%OFA0B0*%
%FSLAX25Y25*%
%IPPOS*%
%LPD*%
%AMOC8*
5,1,8,0,0,1.08239X$1,22.5*
%
%ADD10C,0.00100*%
%ADD11C,0.00500*%
%ADD12C,0.00600*%
%ADD13C,0.00200*%
%ADD14C,0.00800*%
D10*
X0003050Y0003600D02*
X0003050Y0005101D01*
X0003801Y0005101D01*
X0004051Y0004851D01*
X0004051Y0004351D01*
X0003801Y0004100D01*
X0003050Y0004100D01*
X0003550Y0004100D02*
X0004051Y0003600D01*
X0004523Y0003850D02*
X0004523Y0004601D01*
X0004523Y0003850D02*
X0004773Y0003600D01*
X0005524Y0003600D01*
X0005524Y0003350D02*
X0005274Y0003100D01*
X0005024Y0003100D01*
X0005524Y0003350D02*
X0005524Y0004601D01*
X0006247Y0004601D02*
X0006747Y0004601D01*
X0006997Y0004351D01*
X0006997Y0003600D01*
X0006247Y0003600D01*
X0005997Y0003850D01*
X0006247Y0004100D01*
X0006997Y0004100D01*
X0007470Y0003600D02*
X0007470Y0004601D01*
X0008220Y0004601D01*
X0008471Y0004351D01*
X0008471Y0003600D01*
X0010416Y0003850D02*
X0010416Y0004851D01*
X0010666Y0005101D01*
X0011167Y0005101D01*
X0011417Y0004851D01*
X0011417Y0003850D01*
X0011167Y0003600D01*
X0010666Y0003600D01*
X0010416Y0003850D01*
X0011890Y0004601D02*
X0012140Y0004851D01*
X0012140Y0005351D01*
X0012626Y0004851D02*
X0012626Y0004601D01*
X0012876Y0004351D01*
X0013377Y0004351D01*
X0013627Y0004100D01*
X0013627Y0003850D01*
X0013377Y0003600D01*
X0012876Y0003600D01*
X0012626Y0003850D01*
X0014099Y0003600D02*
X0014099Y0005101D01*
X0013627Y0004851D02*
X0013377Y0005101D01*
X0012876Y0005101D01*
X0012626Y0004851D01*
X0014099Y0004351D02*
X0014350Y0004601D01*
X0014850Y0004601D01*
X0015100Y0004351D01*
X0015100Y0003600D01*
X0015573Y0003850D02*
X0015573Y0004351D01*
X0015823Y0004601D01*
X0016323Y0004601D01*
X0016573Y0004351D01*
X0016573Y0004100D01*
X0015573Y0004100D01*
X0015573Y0003850D02*
X0015823Y0003600D01*
X0016323Y0003600D01*
X0017046Y0003850D02*
X0017296Y0004100D01*
X0018047Y0004100D01*
X0018047Y0004351D02*
X0018047Y0003600D01*
X0017296Y0003600D01*
X0017046Y0003850D01*
X0017296Y0004601D02*
X0017797Y0004601D01*
X0018047Y0004351D01*
X0019992Y0004601D02*
X0020243Y0004851D01*
X0020243Y0005351D01*
X0020729Y0004601D02*
X0021229Y0005101D01*
X0021229Y0003600D01*
X0020729Y0003600D02*
X0021730Y0003600D01*
X0022202Y0003850D02*
X0022202Y0004351D01*
X0022953Y0004351D01*
X0023203Y0004100D01*
X0023203Y0003850D01*
X0022953Y0003600D01*
X0022452Y0003600D01*
X0022202Y0003850D01*
X0022202Y0004351D02*
X0022703Y0004851D01*
X0023203Y0005101D01*
X0026050Y0006350D02*
X0026300Y0006100D01*
X0026801Y0006100D01*
X0027051Y0006350D01*
X0027051Y0006600D01*
X0026801Y0006851D01*
X0026300Y0006851D01*
X0026050Y0007101D01*
X0026050Y0007351D01*
X0026300Y0007601D01*
X0026801Y0007601D01*
X0027051Y0007351D01*
X0027523Y0007101D02*
X0028024Y0007601D01*
X0028024Y0006100D01*
X0028524Y0006100D02*
X0027523Y0006100D01*
X0040899Y0005577D02*
X0040899Y0005077D01*
X0041149Y0004827D01*
X0041149Y0004354D02*
X0041649Y0004354D01*
X0041900Y0004104D01*
X0041900Y0003353D01*
X0042400Y0003353D02*
X0040899Y0003353D01*
X0040899Y0004104D01*
X0041149Y0004354D01*
X0041900Y0003854D02*
X0042400Y0004354D01*
X0042400Y0004827D02*
X0041399Y0005828D01*
X0041149Y0005828D01*
X0040899Y0005577D01*
X0042400Y0005828D02*
X0042400Y0004827D01*
X0042449Y0014600D02*
X0043950Y0014600D01*
X0043199Y0014600D02*
X0043199Y0015601D01*
X0042449Y0015601D02*
X0043950Y0015601D01*
X0043950Y0016073D02*
X0043950Y0016574D01*
X0043950Y0016323D02*
X0042449Y0016323D01*
X0042449Y0016073D02*
X0042449Y0016574D01*
X0042449Y0029100D02*
X0043950Y0029100D01*
X0043950Y0030101D01*
X0043700Y0030573D02*
X0042699Y0030573D01*
X0042449Y0030823D01*
X0042449Y0031324D01*
X0042699Y0031574D01*
X0043700Y0031574D01*
X0043950Y0031324D01*
X0043950Y0030823D01*
X0043700Y0030573D01*
X0031878Y0045450D02*
X0030877Y0045450D01*
X0031377Y0045450D02*
X0031377Y0046951D01*
X0030877Y0046451D01*
X0030404Y0046701D02*
X0030154Y0046951D01*
X0029654Y0046951D01*
X0029403Y0046701D01*
X0029403Y0045700D01*
X0029654Y0045450D01*
X0030154Y0045450D01*
X0030404Y0045700D01*
X0034550Y0047101D02*
X0035050Y0046100D01*
X0035551Y0047101D01*
X0036023Y0047351D02*
X0036273Y0047601D01*
X0036774Y0047601D01*
X0037024Y0047351D01*
X0037024Y0047101D01*
X0036774Y0046851D01*
X0037024Y0046600D01*
X0037024Y0046350D01*
X0036774Y0046100D01*
X0036273Y0046100D01*
X0036023Y0046350D01*
X0036524Y0046851D02*
X0036774Y0046851D01*
X0037497Y0046350D02*
X0037497Y0046100D01*
X0037747Y0046100D01*
X0037747Y0046350D01*
X0037497Y0046350D01*
X0038233Y0046350D02*
X0038483Y0046100D01*
X0038984Y0046100D01*
X0039234Y0046350D01*
X0039234Y0047351D01*
X0038233Y0046350D01*
X0038233Y0047351D01*
X0038483Y0047601D01*
X0038984Y0047601D01*
X0039234Y0047351D01*
X0038252Y0048500D02*
X0037501Y0048500D01*
X0037251Y0048750D01*
X0037251Y0049251D01*
X0037501Y0049501D01*
X0038252Y0049501D01*
X0038252Y0050001D02*
X0038252Y0048500D01*
X0036774Y0049501D02*
X0036524Y0049501D01*
X0036023Y0049000D01*
X0036023Y0048500D02*
X0036023Y0049501D01*
X0035551Y0049251D02*
X0035301Y0049501D01*
X0034550Y0049501D01*
X0034550Y0050001D02*
X0034550Y0048500D01*
X0035301Y0048500D01*
X0035551Y0048750D01*
X0035551Y0049251D01*
X0035782Y0050900D02*
X0035532Y0051150D01*
X0035532Y0051651D01*
X0035782Y0051901D01*
X0036283Y0051901D01*
X0036533Y0051651D01*
X0036533Y0051400D01*
X0035532Y0051400D01*
X0035782Y0050900D02*
X0036283Y0050900D01*
X0037005Y0050900D02*
X0037005Y0051901D01*
X0037256Y0051901D01*
X0037506Y0051651D01*
X0037756Y0051901D01*
X0038006Y0051651D01*
X0038006Y0050900D01*
X0038479Y0050900D02*
X0039229Y0050900D01*
X0039480Y0051150D01*
X0039480Y0051651D01*
X0039229Y0051901D01*
X0038479Y0051901D01*
X0038479Y0050400D01*
X0037506Y0050900D02*
X0037506Y0051651D01*
X0035050Y0051901D02*
X0034550Y0051901D01*
X0034800Y0052151D02*
X0034800Y0051150D01*
X0035050Y0050900D01*
X0034078Y0053350D02*
X0033077Y0053350D01*
X0034078Y0054351D01*
X0034078Y0054601D01*
X0033827Y0054851D01*
X0033327Y0054851D01*
X0033077Y0054601D01*
X0032604Y0054601D02*
X0032354Y0054851D01*
X0031854Y0054851D01*
X0031603Y0054601D01*
X0031603Y0053600D01*
X0031854Y0053350D01*
X0032354Y0053350D01*
X0032604Y0053600D01*
X0025550Y0051628D02*
X0025550Y0050627D01*
X0025550Y0051127D02*
X0024049Y0051127D01*
X0024549Y0050627D01*
X0024049Y0050154D02*
X0025300Y0050154D01*
X0025550Y0049904D01*
X0025550Y0049404D01*
X0025300Y0049153D01*
X0024049Y0049153D01*
X0008077Y0040751D02*
X0008077Y0039250D01*
X0007577Y0039250D02*
X0008578Y0039250D01*
X0007577Y0040251D02*
X0008077Y0040751D01*
X0007104Y0040501D02*
X0007104Y0040001D01*
X0006854Y0039750D01*
X0006103Y0039750D01*
X0006103Y0039250D02*
X0006103Y0040751D01*
X0006854Y0040751D01*
X0007104Y0040501D01*
X0006604Y0039750D02*
X0007104Y0039250D01*
X0003950Y0037074D02*
X0003950Y0036073D01*
X0002949Y0037074D01*
X0002699Y0037074D01*
X0002449Y0036824D01*
X0002449Y0036323D01*
X0002699Y0036073D01*
X0002949Y0035601D02*
X0002449Y0035100D01*
X0002949Y0034600D01*
X0003950Y0034600D01*
X0003199Y0034600D02*
X0003199Y0035601D01*
X0002949Y0035601D02*
X0003950Y0035601D01*
X0003950Y0032074D02*
X0003950Y0031073D01*
X0003950Y0030601D02*
X0002949Y0030601D01*
X0002449Y0030100D01*
X0002949Y0029600D01*
X0003950Y0029600D01*
X0003199Y0029600D02*
X0003199Y0030601D01*
X0002949Y0031073D02*
X0002449Y0031574D01*
X0003950Y0031574D01*
X0003700Y0027074D02*
X0002699Y0027074D01*
X0003700Y0026073D01*
X0003950Y0026323D01*
X0003950Y0026824D01*
X0003700Y0027074D01*
X0003700Y0026073D02*
X0002699Y0026073D01*
X0002449Y0026323D01*
X0002449Y0026824D01*
X0002699Y0027074D01*
X0002949Y0025601D02*
X0003950Y0025601D01*
X0003199Y0025601D02*
X0003199Y0024600D01*
X0002949Y0024600D02*
X0002449Y0025100D01*
X0002949Y0025601D01*
X0002949Y0024600D02*
X0003950Y0024600D01*
X0003950Y0022074D02*
X0003950Y0021073D01*
X0002949Y0022074D01*
X0002699Y0022074D01*
X0002449Y0021824D01*
X0002449Y0021323D01*
X0002699Y0021073D01*
X0002949Y0020601D02*
X0003950Y0020601D01*
X0003199Y0020601D02*
X0003199Y0019600D01*
X0002949Y0019600D02*
X0002449Y0020100D01*
X0002949Y0020601D01*
X0002949Y0019600D02*
X0003950Y0019600D01*
X0003950Y0017074D02*
X0003950Y0016073D01*
X0003950Y0015601D02*
X0002949Y0015601D01*
X0002449Y0015100D01*
X0002949Y0014600D01*
X0003950Y0014600D01*
X0003199Y0014600D02*
X0003199Y0015601D01*
X0002949Y0016073D02*
X0002449Y0016574D01*
X0003950Y0016574D01*
X0003700Y0012074D02*
X0002699Y0012074D01*
X0003700Y0011073D01*
X0003950Y0011323D01*
X0003950Y0011824D01*
X0003700Y0012074D01*
X0002699Y0012074D02*
X0002449Y0011824D01*
X0002449Y0011323D01*
X0002699Y0011073D01*
X0003700Y0011073D01*
X0003950Y0010601D02*
X0002949Y0010601D01*
X0002449Y0010100D01*
X0002949Y0009600D01*
X0003950Y0009600D01*
X0003199Y0009600D02*
X0003199Y0010601D01*
X0041949Y0050100D02*
X0041949Y0050601D01*
X0041949Y0050351D02*
X0043200Y0050351D01*
X0043450Y0050100D01*
X0043450Y0049850D01*
X0043200Y0049600D01*
X0043450Y0051073D02*
X0043450Y0052074D01*
X0043450Y0051574D02*
X0041949Y0051574D01*
X0042449Y0051073D01*
X0042449Y0057600D02*
X0043450Y0057600D01*
X0043950Y0058100D01*
X0043450Y0058601D01*
X0042449Y0058601D01*
X0042449Y0059073D02*
X0042449Y0059824D01*
X0042699Y0060074D01*
X0043700Y0060074D01*
X0043950Y0059824D01*
X0043950Y0059073D01*
X0042449Y0059073D01*
X0042449Y0060547D02*
X0042449Y0061297D01*
X0042699Y0061547D01*
X0043700Y0061547D01*
X0043950Y0061297D01*
X0043950Y0060547D01*
X0042449Y0060547D01*
X0074300Y0015601D02*
X0074050Y0015351D01*
X0074050Y0014350D01*
X0074300Y0014100D01*
X0074801Y0014100D01*
X0075051Y0014350D01*
X0075051Y0014851D01*
X0074550Y0014851D01*
X0075051Y0015351D02*
X0074801Y0015601D01*
X0074300Y0015601D01*
X0075523Y0015601D02*
X0075523Y0014100D01*
X0076524Y0014100D02*
X0076524Y0015601D01*
X0076997Y0015601D02*
X0077747Y0015601D01*
X0077997Y0015351D01*
X0077997Y0014350D01*
X0077747Y0014100D01*
X0076997Y0014100D01*
X0076997Y0015601D01*
X0075523Y0015601D02*
X0076524Y0014100D01*
X0063124Y0004200D02*
X0062123Y0004200D01*
X0062624Y0004200D02*
X0062624Y0005701D01*
X0062123Y0005201D01*
X0061651Y0005451D02*
X0061651Y0004450D01*
X0061401Y0004200D01*
X0060650Y0004200D01*
X0060650Y0005701D01*
X0061401Y0005701D01*
X0061651Y0005451D01*
D11*
X0041500Y0008050D02*
X0041500Y0023050D01*
X0041500Y0038050D01*
X0040500Y0038050D01*
X0033700Y0037650D02*
X0033700Y0008650D01*
X0011700Y0008650D01*
X0011700Y0037650D01*
X0033700Y0037650D01*
X0023000Y0047050D02*
X0013000Y0047050D01*
X0013000Y0055050D01*
X0023000Y0055050D01*
X0023000Y0047050D01*
X0023572Y0058050D02*
X0023574Y0058104D01*
X0023580Y0058157D01*
X0023590Y0058210D01*
X0023604Y0058262D01*
X0023621Y0058313D01*
X0023642Y0058362D01*
X0023667Y0058410D01*
X0023696Y0058456D01*
X0023727Y0058499D01*
X0023762Y0058540D01*
X0023800Y0058579D01*
X0023840Y0058614D01*
X0023883Y0058647D01*
X0023928Y0058676D01*
X0023976Y0058702D01*
X0024025Y0058724D01*
X0024075Y0058742D01*
X0024127Y0058757D01*
X0024179Y0058768D01*
X0024233Y0058775D01*
X0024287Y0058778D01*
X0024340Y0058777D01*
X0024394Y0058772D01*
X0024447Y0058763D01*
X0024499Y0058750D01*
X0024550Y0058734D01*
X0024600Y0058713D01*
X0024648Y0058689D01*
X0024695Y0058662D01*
X0024739Y0058631D01*
X0024780Y0058597D01*
X0024820Y0058560D01*
X0024856Y0058520D01*
X0024889Y0058478D01*
X0024919Y0058433D01*
X0024946Y0058386D01*
X0024969Y0058338D01*
X0024988Y0058288D01*
X0025004Y0058236D01*
X0025016Y0058184D01*
X0025024Y0058131D01*
X0025028Y0058077D01*
X0025028Y0058023D01*
X0025024Y0057969D01*
X0025016Y0057916D01*
X0025004Y0057864D01*
X0024988Y0057812D01*
X0024969Y0057762D01*
X0024946Y0057714D01*
X0024919Y0057667D01*
X0024889Y0057622D01*
X0024856Y0057580D01*
X0024820Y0057540D01*
X0024780Y0057503D01*
X0024739Y0057469D01*
X0024695Y0057438D01*
X0024648Y0057411D01*
X0024600Y0057387D01*
X0024550Y0057366D01*
X0024499Y0057350D01*
X0024447Y0057337D01*
X0024394Y0057328D01*
X0024340Y0057323D01*
X0024287Y0057322D01*
X0024233Y0057325D01*
X0024179Y0057332D01*
X0024127Y0057343D01*
X0024075Y0057358D01*
X0024025Y0057376D01*
X0023976Y0057398D01*
X0023928Y0057424D01*
X0023883Y0057453D01*
X0023840Y0057486D01*
X0023800Y0057521D01*
X0023762Y0057560D01*
X0023727Y0057601D01*
X0023696Y0057644D01*
X0023667Y0057690D01*
X0023642Y0057738D01*
X0023621Y0057787D01*
X0023604Y0057838D01*
X0023590Y0057890D01*
X0023580Y0057943D01*
X0023574Y0057996D01*
X0023572Y0058050D01*
X0040500Y0023050D02*
X0041500Y0023050D01*
X0041500Y0008050D02*
X0040500Y0008050D01*
D12*
X0044038Y0007669D02*
X0044038Y0010031D01*
X0048762Y0010031D02*
X0048762Y0007669D01*
X0032381Y0039688D02*
X0030019Y0039688D01*
X0030019Y0044412D02*
X0032381Y0044412D01*
X0032319Y0056588D02*
X0034681Y0056588D01*
X0034681Y0061312D02*
X0032319Y0061312D01*
X0009362Y0048231D02*
X0009362Y0045869D01*
X0004638Y0045869D02*
X0004638Y0048231D01*
D13*
X0029398Y0036218D02*
X0029765Y0035484D01*
X0030499Y0034750D01*
X0030499Y0035851D01*
X0030866Y0036218D01*
X0031233Y0036218D01*
X0031600Y0035851D01*
X0031600Y0035117D01*
X0031233Y0034750D01*
X0030499Y0034750D01*
X0030499Y0031218D02*
X0031233Y0031218D01*
X0031600Y0030851D01*
X0031600Y0030117D01*
X0031233Y0029750D01*
X0030499Y0029750D02*
X0030132Y0030484D01*
X0030132Y0030851D01*
X0030499Y0031218D01*
X0029398Y0031218D02*
X0029398Y0029750D01*
X0030499Y0029750D01*
X0030499Y0026218D02*
X0030499Y0024750D01*
X0029398Y0025851D01*
X0031600Y0025851D01*
X0031233Y0021218D02*
X0030866Y0021218D01*
X0030499Y0020851D01*
X0030499Y0020484D01*
X0030499Y0020851D02*
X0030132Y0021218D01*
X0029765Y0021218D01*
X0029398Y0020851D01*
X0029398Y0020117D01*
X0029765Y0019750D01*
X0031233Y0019750D02*
X0031600Y0020117D01*
X0031600Y0020851D01*
X0031233Y0021218D01*
X0031600Y0016218D02*
X0031600Y0014750D01*
X0030132Y0016218D01*
X0029765Y0016218D01*
X0029398Y0015851D01*
X0029398Y0015117D01*
X0029765Y0014750D01*
X0031600Y0011218D02*
X0031600Y0009750D01*
X0031600Y0010484D02*
X0029398Y0010484D01*
X0030132Y0009750D01*
X0016600Y0011117D02*
X0016600Y0011851D01*
X0016233Y0012218D01*
X0014765Y0012218D01*
X0014398Y0011851D01*
X0014398Y0011117D01*
X0014765Y0010750D01*
X0016233Y0010750D01*
X0016600Y0011117D01*
X0016600Y0012960D02*
X0014398Y0012960D01*
X0016600Y0014428D01*
X0014398Y0014428D01*
D14*
X0052451Y0014387D02*
X0052451Y0006513D01*
X0057963Y0006513D01*
X0060719Y0007694D02*
X0060719Y0010450D01*
X0063081Y0012812D01*
X0063081Y0008088D01*
X0060719Y0010450D01*
X0060719Y0013206D01*
X0057963Y0014387D02*
X0052451Y0014387D01*
X0065837Y0014387D02*
X0071349Y0014387D01*
X0071349Y0006513D01*
X0065837Y0006513D01*
M02*
