G75*
%MOIN*%
%OFA0B0*%
%FSLAX25Y25*%
%IPPOS*%
%LPD*%
%AMOC8*
5,1,8,0,0,1.08239X$1,22.5*
%
%ADD10C,0.00600*%
%ADD11C,0.00300*%
%ADD12C,0.00500*%
%ADD13R,0.06000X0.06000*%
%ADD14C,0.00800*%
%ADD15C,0.00100*%
%ADD16R,0.02000X0.02000*%
%ADD17C,0.00000*%
D10*
X0010450Y0001300D02*
X0035650Y0001300D01*
X0035650Y0086300D01*
X0010450Y0086300D01*
X0010450Y0001300D01*
X0015050Y0005800D02*
X0031050Y0005800D01*
X0031050Y0011800D01*
X0015050Y0011800D01*
X0015050Y0005800D01*
X0015050Y0015800D02*
X0031050Y0015800D01*
X0031050Y0021800D01*
X0015050Y0021800D01*
X0015050Y0015800D01*
X0015050Y0025800D02*
X0031050Y0025800D01*
X0031050Y0031800D01*
X0015050Y0031800D01*
X0015050Y0025800D01*
X0015050Y0035800D02*
X0031050Y0035800D01*
X0031050Y0041800D01*
X0015050Y0041800D01*
X0015050Y0035800D01*
X0015050Y0045800D02*
X0031050Y0045800D01*
X0031050Y0051800D01*
X0015050Y0051800D01*
X0015050Y0045800D01*
X0015050Y0055800D02*
X0031050Y0055800D01*
X0031050Y0061800D01*
X0015050Y0061800D01*
X0015050Y0055800D01*
X0015050Y0065800D02*
X0031050Y0065800D01*
X0031050Y0071800D01*
X0015050Y0071800D01*
X0015050Y0065800D01*
X0015050Y0075800D02*
X0031050Y0075800D01*
X0031050Y0081800D01*
X0015050Y0081800D01*
X0015050Y0075800D01*
X0055959Y0056697D02*
X0058321Y0056697D01*
X0058321Y0051973D02*
X0055959Y0051973D01*
X0063704Y0043992D02*
X0066066Y0043992D01*
X0066066Y0039268D02*
X0063704Y0039268D01*
X0058775Y0031520D02*
X0058775Y0019320D01*
X0063675Y0019320D01*
X0066075Y0019320D01*
X0070975Y0019320D01*
X0070975Y0031520D01*
X0058775Y0031520D01*
X0058775Y0030020D02*
X0054875Y0030020D01*
X0054875Y0028520D01*
X0058775Y0028520D01*
X0058775Y0030020D01*
X0058775Y0027420D02*
X0054875Y0027420D01*
X0054875Y0025920D01*
X0058775Y0025920D01*
X0058775Y0027420D01*
X0058775Y0024920D02*
X0054875Y0024920D01*
X0054875Y0023420D01*
X0058775Y0023420D01*
X0058775Y0024920D01*
X0058775Y0022320D02*
X0054875Y0022320D01*
X0054975Y0020820D01*
X0058775Y0020820D01*
X0058775Y0022320D01*
X0070975Y0022320D02*
X0070975Y0020820D01*
X0074875Y0020820D01*
X0074875Y0022320D01*
X0070975Y0022320D01*
X0070975Y0023420D02*
X0074875Y0023420D01*
X0074875Y0024920D01*
X0070975Y0024920D01*
X0070975Y0023420D01*
X0070975Y0025920D02*
X0074875Y0025920D01*
X0074775Y0027420D01*
X0070975Y0027420D01*
X0070975Y0025920D01*
X0070975Y0028520D02*
X0074875Y0028520D01*
X0074775Y0030020D01*
X0070975Y0030020D01*
X0070975Y0028520D01*
X0081540Y0028940D02*
X0081540Y0023940D01*
X0084040Y0021440D01*
X0099040Y0021440D01*
X0101540Y0018940D01*
X0101540Y0013940D01*
X0099040Y0011440D01*
X0101540Y0008940D01*
X0101540Y0003940D01*
X0099040Y0001440D01*
X0084040Y0001440D01*
X0081540Y0003940D01*
X0081540Y0008940D01*
X0084040Y0011440D01*
X0099040Y0011440D01*
X0099040Y0021440D02*
X0101540Y0023940D01*
X0101540Y0028940D01*
X0099040Y0031440D01*
X0084040Y0031440D01*
X0081540Y0028940D01*
X0084040Y0031440D02*
X0081540Y0033940D01*
X0081540Y0038940D01*
X0084040Y0041440D01*
X0099040Y0041440D01*
X0101540Y0038940D01*
X0101540Y0033940D01*
X0099040Y0031440D01*
X0099040Y0041440D02*
X0101540Y0043940D01*
X0101540Y0048940D01*
X0099040Y0051440D01*
X0084040Y0051440D01*
X0081540Y0048940D01*
X0081540Y0043940D01*
X0084040Y0041440D01*
X0084040Y0021440D02*
X0081540Y0018940D01*
X0081540Y0013940D01*
X0084040Y0011440D01*
X0062041Y0009277D02*
X0059679Y0009277D01*
X0059679Y0004553D02*
X0062041Y0004553D01*
D11*
X0073389Y0016350D02*
X0076525Y0019486D01*
X0074957Y0019486D02*
X0074957Y0016350D01*
X0076525Y0016350D02*
X0073389Y0019486D01*
X0073389Y0017918D02*
X0076525Y0017918D01*
X0076025Y0023066D02*
X0076025Y0026986D01*
X0075241Y0027770D01*
X0073673Y0027770D01*
X0072889Y0026986D01*
X0072889Y0023066D01*
X0071421Y0023850D02*
X0070637Y0023066D01*
X0069069Y0023066D01*
X0068285Y0023850D01*
X0066817Y0024634D02*
X0065249Y0023066D01*
X0065249Y0027770D01*
X0066817Y0027770D02*
X0063681Y0027770D01*
X0068285Y0026986D02*
X0068285Y0026202D01*
X0069069Y0025418D01*
X0070637Y0025418D01*
X0071421Y0024634D01*
X0071421Y0023850D01*
X0069853Y0022282D02*
X0069853Y0028554D01*
X0069069Y0027770D02*
X0068285Y0026986D01*
X0069069Y0027770D02*
X0070637Y0027770D01*
X0071421Y0026986D01*
X0021900Y0075767D02*
X0021900Y0078236D01*
X0021900Y0077001D02*
X0018197Y0077001D01*
X0019431Y0075767D01*
D12*
X0045796Y0075593D02*
X0046547Y0074842D01*
X0047297Y0074842D01*
X0048048Y0075593D01*
X0048048Y0077094D01*
X0048799Y0077845D01*
X0049549Y0077845D01*
X0050300Y0077094D01*
X0050300Y0075593D01*
X0049549Y0074842D01*
X0046547Y0077845D02*
X0045796Y0077094D01*
X0045796Y0075593D01*
X0047297Y0079446D02*
X0045796Y0080947D01*
X0050300Y0080947D01*
X0050300Y0079446D02*
X0050300Y0082449D01*
D13*
X0028050Y0078800D03*
X0028050Y0068800D03*
X0028050Y0058800D03*
X0028050Y0048800D03*
X0028050Y0038800D03*
X0028050Y0028800D03*
X0028050Y0018800D03*
X0028050Y0008800D03*
D14*
X0079040Y0043940D02*
X0079040Y0048940D01*
X0078742Y0058768D02*
X0084254Y0058768D01*
X0084254Y0066642D01*
X0078742Y0066642D01*
X0075986Y0065461D02*
X0075986Y0062705D01*
X0073624Y0060343D01*
X0073624Y0065067D01*
X0075986Y0062705D01*
X0075986Y0059949D01*
X0070868Y0058768D02*
X0065356Y0058768D01*
X0065356Y0066642D01*
X0070868Y0066642D01*
D15*
X0071355Y0068255D02*
X0072356Y0068255D01*
X0072828Y0068255D02*
X0073829Y0068255D01*
X0074302Y0068255D02*
X0075052Y0068255D01*
X0075302Y0068505D01*
X0075302Y0069506D01*
X0075052Y0069756D01*
X0074302Y0069756D01*
X0074302Y0068255D01*
X0073329Y0069006D02*
X0072828Y0069006D01*
X0072828Y0069756D02*
X0072828Y0068255D01*
X0071355Y0068255D02*
X0071355Y0069756D01*
X0072828Y0069756D02*
X0073829Y0069756D01*
X0063959Y0082750D02*
X0062958Y0082750D01*
X0063959Y0083751D01*
X0063959Y0084001D01*
X0063709Y0084251D01*
X0063208Y0084251D01*
X0062958Y0084001D01*
X0062486Y0084001D02*
X0062236Y0084251D01*
X0061735Y0084251D01*
X0061485Y0084001D01*
X0061485Y0083000D01*
X0061735Y0082750D01*
X0062236Y0082750D01*
X0062486Y0083000D01*
X0056414Y0059136D02*
X0055913Y0059136D01*
X0055663Y0058886D01*
X0055191Y0058886D02*
X0055191Y0058386D01*
X0054941Y0058135D01*
X0054190Y0058135D01*
X0054190Y0057635D02*
X0054190Y0059136D01*
X0054941Y0059136D01*
X0055191Y0058886D01*
X0054690Y0058135D02*
X0055191Y0057635D01*
X0055663Y0057635D02*
X0056664Y0058636D01*
X0056664Y0058886D01*
X0056414Y0059136D01*
X0056664Y0057635D02*
X0055663Y0057635D01*
X0062185Y0046431D02*
X0061935Y0046181D01*
X0061935Y0045180D01*
X0062185Y0044930D01*
X0062686Y0044930D01*
X0062936Y0045180D01*
X0063408Y0044930D02*
X0064409Y0044930D01*
X0063909Y0044930D02*
X0063909Y0046431D01*
X0063408Y0045931D01*
X0062936Y0046181D02*
X0062686Y0046431D01*
X0062185Y0046431D01*
X0080490Y0015964D02*
X0080490Y0014963D01*
X0080490Y0015464D02*
X0078989Y0015464D01*
X0079489Y0014963D01*
X0078989Y0014491D02*
X0078989Y0013990D01*
X0078989Y0014241D02*
X0080240Y0014241D01*
X0080490Y0013990D01*
X0080490Y0013740D01*
X0080240Y0013490D01*
X0060384Y0010215D02*
X0059383Y0010215D01*
X0058911Y0010215D02*
X0058410Y0010715D01*
X0058661Y0010715D02*
X0057910Y0010715D01*
X0057910Y0010215D02*
X0057910Y0011716D01*
X0058661Y0011716D01*
X0058911Y0011466D01*
X0058911Y0010966D01*
X0058661Y0010715D01*
X0059383Y0011216D02*
X0059884Y0011716D01*
X0059884Y0010215D01*
D16*
X0086540Y0026440D03*
D17*
X0066075Y0019320D02*
X0066073Y0019389D01*
X0066067Y0019457D01*
X0066057Y0019525D01*
X0066044Y0019592D01*
X0066026Y0019658D01*
X0066005Y0019723D01*
X0065980Y0019787D01*
X0065952Y0019849D01*
X0065920Y0019910D01*
X0065885Y0019969D01*
X0065846Y0020025D01*
X0065804Y0020080D01*
X0065759Y0020131D01*
X0065711Y0020181D01*
X0065661Y0020227D01*
X0065608Y0020270D01*
X0065552Y0020311D01*
X0065495Y0020348D01*
X0065435Y0020381D01*
X0065373Y0020412D01*
X0065310Y0020438D01*
X0065246Y0020461D01*
X0065180Y0020481D01*
X0065113Y0020496D01*
X0065046Y0020508D01*
X0064978Y0020516D01*
X0064909Y0020520D01*
X0064841Y0020520D01*
X0064772Y0020516D01*
X0064704Y0020508D01*
X0064637Y0020496D01*
X0064570Y0020481D01*
X0064504Y0020461D01*
X0064440Y0020438D01*
X0064377Y0020412D01*
X0064315Y0020381D01*
X0064255Y0020348D01*
X0064198Y0020311D01*
X0064142Y0020270D01*
X0064089Y0020227D01*
X0064039Y0020181D01*
X0063991Y0020131D01*
X0063946Y0020080D01*
X0063904Y0020025D01*
X0063865Y0019969D01*
X0063830Y0019910D01*
X0063798Y0019849D01*
X0063770Y0019787D01*
X0063745Y0019723D01*
X0063724Y0019658D01*
X0063706Y0019592D01*
X0063693Y0019525D01*
X0063683Y0019457D01*
X0063677Y0019389D01*
X0063675Y0019320D01*
M02*
