G75*
%MOIN*%
%OFA0B0*%
%FSLAX25Y25*%
%IPPOS*%
%LPD*%
%AMOC8*
5,1,8,0,0,1.08239X$1,22.5*
%
%ADD10R,0.07900X0.04300*%
%ADD11OC8,0.07400*%
%ADD12R,0.03150X0.04724*%
%ADD13R,0.04724X0.05512*%
%ADD14R,0.06299X0.07087*%
%ADD15R,0.05600X0.01700*%
%ADD16C,0.00400*%
%ADD17C,0.00500*%
D10*
X0005350Y0008800D03*
X0005350Y0018800D03*
X0005350Y0028800D03*
X0005350Y0038800D03*
X0005350Y0048800D03*
X0005350Y0058800D03*
X0005350Y0068800D03*
X0005350Y0078800D03*
X0040750Y0078800D03*
X0040750Y0068800D03*
X0040750Y0058800D03*
X0040750Y0048800D03*
X0040750Y0038800D03*
X0040750Y0028800D03*
X0040750Y0018800D03*
X0040750Y0008800D03*
D11*
X0086540Y0006440D03*
X0096540Y0006440D03*
X0096540Y0016440D03*
X0086540Y0016440D03*
X0086540Y0026440D03*
X0096540Y0026440D03*
X0096540Y0036440D03*
X0086540Y0036440D03*
X0086540Y0046440D03*
X0096540Y0046440D03*
D12*
X0068428Y0041630D03*
X0061342Y0041630D03*
X0060683Y0054335D03*
X0053597Y0054335D03*
X0057317Y0006915D03*
X0064403Y0006915D03*
D13*
X0068899Y0062705D03*
X0080711Y0062705D03*
D14*
X0071947Y0078200D03*
X0060923Y0078200D03*
D15*
X0056325Y0029259D03*
X0056325Y0026699D03*
X0056325Y0024140D03*
X0056325Y0021581D03*
X0073425Y0021581D03*
X0073425Y0024140D03*
X0073425Y0026699D03*
X0073425Y0029259D03*
D16*
X0004195Y0038525D02*
X0004195Y0039035D01*
D17*
X0005090Y0037730D02*
X0005090Y0058410D01*
X0005580Y0058410D01*
X0005825Y0058900D02*
X0031905Y0058900D01*
X0037075Y0064070D01*
X0044695Y0064070D01*
X0054295Y0054470D01*
X0053555Y0053975D02*
X0053555Y0070475D01*
X0059955Y0076875D01*
X0060445Y0076875D01*
X0060200Y0077855D02*
X0063150Y0083275D01*
X0076930Y0083270D01*
X0086280Y0068255D01*
X0086280Y0046100D01*
X0073235Y0029115D01*
X0073730Y0023945D02*
X0078895Y0024435D01*
X0084310Y0031080D01*
X0092430Y0030590D01*
X0096860Y0036250D01*
X0087015Y0026405D02*
X0080870Y0021730D01*
X0073735Y0021480D01*
X0064875Y0012625D02*
X0056265Y0021235D01*
X0060930Y0021480D01*
X0066840Y0033295D01*
X0069550Y0039700D01*
X0068320Y0040930D01*
X0068320Y0041175D01*
X0068565Y0041420D01*
X0068810Y0043390D02*
X0057740Y0049300D01*
X0057495Y0049300D02*
X0057495Y0057435D01*
X0067825Y0063580D01*
X0067825Y0063335D01*
X0068320Y0062840D01*
X0069305Y0063330D02*
X0069305Y0063330D01*
X0069795Y0062840D01*
X0070040Y0062840D01*
X0073730Y0077120D01*
X0073485Y0077365D01*
X0062905Y0081550D02*
X0062660Y0081305D01*
X0062170Y0081305D01*
X0070040Y0062840D02*
X0070285Y0062840D01*
X0071265Y0053975D02*
X0079390Y0062100D01*
X0071265Y0053975D02*
X0061185Y0053975D01*
X0054295Y0052255D02*
X0054295Y0049050D01*
X0061675Y0041670D01*
X0048390Y0051765D02*
X0042240Y0057915D01*
X0042240Y0058165D01*
X0045930Y0052010D02*
X0036585Y0052010D01*
X0032645Y0049790D01*
X0032400Y0021480D01*
X0032645Y0021975D02*
X0032645Y0018525D01*
X0036580Y0014590D01*
X0045930Y0014590D01*
X0049865Y0018525D01*
X0049865Y0020990D01*
X0053555Y0024680D01*
X0053560Y0024680D01*
X0053805Y0024435D01*
X0054050Y0026650D02*
X0050365Y0026650D01*
X0043225Y0019510D01*
X0043225Y0019265D01*
X0042485Y0019265D02*
X0042240Y0019510D01*
X0041745Y0019510D01*
X0033630Y0027625D01*
X0033630Y0040685D01*
X0040270Y0047325D01*
X0040270Y0047825D01*
X0046175Y0051760D02*
X0046915Y0051020D01*
X0046915Y0043145D01*
X0043715Y0039945D01*
X0043715Y0039450D01*
X0043715Y0039700D02*
X0043225Y0039210D01*
X0043225Y0038960D01*
X0042485Y0029605D02*
X0041745Y0028865D01*
X0042485Y0029605D02*
X0048390Y0029605D01*
X0048390Y0051765D01*
X0048390Y0029605D02*
X0053805Y0029605D01*
X0049865Y0017295D02*
X0049375Y0017295D01*
X0056270Y0010400D01*
X0061430Y0010400D01*
X0061430Y0003265D01*
X0047900Y0003265D01*
X0042485Y0008680D01*
X0046670Y0012370D02*
X0047405Y0011635D01*
X0047645Y0011635D01*
X0051095Y0008185D01*
X0057250Y0008185D01*
X0057495Y0007940D01*
X0057740Y0007695D01*
X0057495Y0007940D02*
X0057495Y0007940D01*
X0064875Y0007450D02*
X0064875Y0012625D01*
X0064875Y0007200D02*
X0072500Y0010645D01*
X0093170Y0011140D01*
X0096120Y0007450D01*
X0046670Y0012370D02*
X0007795Y0012370D01*
X0005335Y0014830D01*
X0005335Y0028620D01*
M02*
